<?xml version="1.0" standalone="no"?>
<!DOCTYPE svg PUBLIC "-//W3C//DTD SVG 1.1//EN" "http://www.w3.org/Graphics/SVG/1.1/DTD/svg11.dtd" >
<svg xmlns="http://www.w3.org/2000/svg" xmlns:xlink="http://www.w3.org/1999/xlink" version="1.1">
<metadata></metadata>
<defs>
<font id="programmelight_rotated" horiz-adv-x="1150" >
<font-face units-per-em="2048" ascent="1681" descent="-367" />
<missing-glyph horiz-adv-x="536" />
<glyph unicode="&#xfb01;" horiz-adv-x="1218" d="M319 1030q12 59 25.5 117.5t40.5 103.5t72 73t118 28q51 0 109.5 -15.5t106.5 -38.5l-29 -141q-29 14 -74 27.5t-76 13.5q-41 0 -65.5 -20.5t-37.5 -50t-19.5 -65.5t-12.5 -67l279 -59l-31 -139l-276 59l-183 -854l-157 33l180 854l-187 39l31 141zM989 1020l160 -33 l-211 -995l-160 35zM1014 1276q0 47 30.5 81t79.5 34q47 0 83 -31t36 -80q0 -47 -30.5 -81t-77.5 -34t-84 31t-37 80z" />
<glyph unicode="&#xfb02;" horiz-adv-x="1222" d="M319 1030q12 59 25.5 117.5t40.5 103.5t72 73t118 28q51 0 109.5 -15.5t106.5 -38.5l-29 -141q-29 14 -74 27.5t-76 13.5q-41 0 -65.5 -20.5t-37.5 -50t-19.5 -65.5t-12.5 -67l279 -59l-31 -139l-276 59l-183 -854l-157 33l180 854l-187 39l31 141zM780 35l287 1341 l158 -35l-287 -1341z" />
<glyph horiz-adv-x="0" />
<glyph unicode="&#xd;" horiz-adv-x="0" />
<glyph horiz-adv-x="0" />
<glyph horiz-adv-x="0" />
<glyph unicode=" "  horiz-adv-x="536" />
<glyph unicode="&#x09;" horiz-adv-x="536" />
<glyph unicode="&#xa0;" horiz-adv-x="536" />
<glyph unicode="!" horiz-adv-x="577" d="M526 1339l-207 -972l-157 32l207 975zM61 135q10 53 53.5 80t94.5 16q51 -10 79.5 -52t16.5 -97q-10 -53 -54 -80t-93 -16q-51 12 -80 54t-17 95z" />
<glyph unicode="&#x22;" horiz-adv-x="720" d="M557 1372h148l-21 -428h-106zM248 1372h147l-20 -428h-107z" />
<glyph unicode="#" horiz-adv-x="1370" d="M778 406h-246l-79 -406h-144l80 406h-291v143h320l65 323h-305v144h334l72 356h143l-72 -356h246l72 356h143l-72 -356h285v-144h-313l-66 -323h299v-143h-327l-80 -406h-144zM561 549h246l65 323h-245z" />
<glyph unicode="$" horiz-adv-x="1187" d="M504 -213v180q-102 10 -187.5 40t-136.5 65v166h10q23 -20 64 -42t92 -39.5t106.5 -28.5t108.5 -11q154 0 247 67.5t93 188.5q0 55 -17.5 95t-49 69.5t-75.5 51t-95 40.5l-164 57q-47 16 -102.5 43t-103.5 70t-81 103.5t-33 146.5q0 63 25.5 121.5t71 104.5t109 78.5 t140.5 47.5v176h154v-170q98 -10 173 -39t105 -51v-166h-10q-23 20 -58.5 39.5t-78.5 34t-90 22.5t-94 8q-135 0 -209 -61t-74 -154q0 -45 17.5 -76.5t47 -55t66.5 -40t76 -30.5l203 -72q57 -20 113.5 -51t100.5 -78t70.5 -111.5t26.5 -152.5q0 -84 -30.5 -153.5t-85 -122 t-129.5 -85t-163 -43.5v-182h-153z" />
<glyph unicode="%" horiz-adv-x="1818" d="M475 772q43 0 76 19.5t53.5 53.5t30.5 79t10 96t-10 96t-31.5 79t-53.5 54.5t-75 20.5t-75.5 -20.5t-54 -54.5t-33 -79t-11.5 -96t10.5 -96t32 -79t54 -53.5t77.5 -19.5zM475 653q-72 0 -128 29t-95 78t-60.5 115.5t-21.5 144.5q0 80 21.5 147.5t60.5 116.5t95 77t128 28 q70 0 126 -28t95 -77t60.5 -116.5t21.5 -147.5q0 -78 -21.5 -144.5t-60.5 -115.5t-95 -78t-126 -29zM1391 100q43 0 75.5 19.5t53 53.5t31 79t10.5 96t-10.5 96t-32 79t-53 54.5t-74.5 20.5t-76 -20.5t-54.5 -54.5t-32.5 -79t-11 -96t10 -96t31.5 -79t54.5 -53.5t78 -19.5z M1391 -18q-72 0 -128.5 28.5t-95.5 77.5t-60.5 115.5t-21.5 144.5q0 80 21.5 147.5t60.5 117t95.5 77t128.5 27.5q70 0 126 -27.5t95 -77t60.5 -117t21.5 -147.5q0 -78 -21.5 -144.5t-60.5 -115.5t-95 -77.5t-126 -28.5zM1440 1362l-836 -1362h-141v10l835 1362h142v-10z " />
<glyph unicode="&#x26;" horiz-adv-x="1392" d="M1317 0h-162l-108 129q-55 -70 -147.5 -118t-237.5 -48q-115 0 -208.5 37t-158 99.5t-99 144.5t-34.5 170q0 125 70.5 236.5t240.5 189.5q-23 20 -47.5 47.5t-45 61.5t-34.5 74t-14 85q0 59 23.5 112.5t64.5 93.5t95 63.5t116 23.5q61 0 114.5 -20.5t94.5 -58.5t64.5 -92 t23.5 -122q0 -86 -58.5 -170t-177.5 -143l332 -420q10 29 14 76t4 94v168h146v-205q0 -66 -14.5 -135.5t-43.5 -120.5l187 -242v-10zM565 733q-109 -53 -178.5 -125.5t-69.5 -187.5q0 -63 25 -118.5t70 -97.5t107.5 -66.5t137.5 -24.5q90 0 171 31.5t133 97.5zM776 1108 q0 66 -39 109t-104 43q-78 0 -116 -49.5t-38 -104.5q0 -25 13.5 -52.5t32 -55t41 -52t40.5 -45.5q86 47 128 94t42 113z" />
<glyph unicode="'" horiz-adv-x="411" d="M248 1372h147l-20 -428h-107z" />
<glyph unicode="(" horiz-adv-x="665" d="M414 -332l-174 35q-86 145 -131.5 307t-45.5 332q0 154 39 302.5t112 281.5t176.5 246.5t232.5 199.5l170 -37l-2 -10q-125 -80 -228.5 -187.5t-178.5 -235.5t-117 -270.5t-42 -291.5q0 -176 50.5 -345t140.5 -319z" />
<glyph unicode=")" horiz-adv-x="649" d="M-127 -217q119 84 217 189.5t169 228.5t110 260t39 287q0 182 -53.5 360t-153.5 332l2 10l170 -37q98 -152 146 -326t48 -354q0 -305 -139 -563t-385 -434l-172 37z" />
<glyph unicode="*" horiz-adv-x="1038" d="M530 1042v330h144v-330l313 103l45 -137l-313 -103l190 -268l-116 -82l-191 266l-196 -264l-117 86l194 262l-311 103l45 137z" />
<glyph unicode="+" horiz-adv-x="1101" d="M463 602v404h153v-404h388v-147h-388v-404h-153v404h-385v147h385z" />
<glyph unicode="," horiz-adv-x="462" d="M74 225h192l-188 -450h-103z" />
<glyph unicode="-" horiz-adv-x="833" d="M674 602v-147h-537v147h537z" />
<glyph unicode="." horiz-adv-x="483" d="M23 96q0 55 35.5 90t88.5 35q51 0 88 -34.5t37 -90.5q0 -55 -36.5 -90t-88.5 -35q-53 0 -88.5 35t-35.5 90z" />
<glyph unicode="/" horiz-adv-x="649" d="M0 0l532 1372h164l-532 -1372h-164z" />
<glyph unicode="0" horiz-adv-x="1259" d="M610 -25q-125 0 -216 45.5t-150.5 121t-88 177t-28.5 216.5q0 82 14.5 178t45 191t77.5 184.5t110.5 157t145.5 108.5t185 41q123 0 212 -47.5t146 -125t85 -180t28 -213.5q0 -82 -14.5 -176t-43 -189t-75 -183t-109 -156t-143.5 -109t-181 -41zM1014 825 q0 72 -14.5 145.5t-50.5 134t-93 99.5t-143 39q-74 0 -134.5 -34.5t-106.5 -92t-81 -131.5t-56.5 -150.5t-32.5 -151.5t-11 -132q0 -72 15.5 -146.5t50 -135t94 -99.5t145.5 -39q74 0 133 35t106.5 93t80 132t55 150.5t33 150.5t10.5 133z" />
<glyph unicode="1" horiz-adv-x="718" d="M158 1051l37 166l340 122l127 -28l-285 -1342l-158 33l244 1153l-295 -106z" />
<glyph unicode="2" horiz-adv-x="1079" d="M877 74l-31 -144l-823 174l26 123l623 463q39 31 77.5 61.5t69.5 67.5t49.5 80t18.5 98q0 68 -32 118t-81 83t-110.5 48.5t-120.5 15.5q-78 0 -148.5 -26t-134.5 -67l-10 2l35 164q59 39 138 56.5t150 17.5q88 0 174.5 -27.5t154 -80t108.5 -129t41 -173.5 q0 -76 -25 -136t-64.5 -110.5t-93 -93.5t-108.5 -84l-500 -370z" />
<glyph unicode="3" horiz-adv-x="1089" d="M328 846l503 317l-567 121l31 143l752 -159l-31 -144l-424 -268q74 -18 136.5 -58t108.5 -95.5t72.5 -124t26.5 -144.5q0 -98 -37 -183t-99.5 -146.5t-147.5 -97.5t-183 -36q-53 0 -116.5 13.5t-124 37t-115 57.5t-88.5 77l32 159l11 -2q33 -41 79 -74.5t97 -58 t106.5 -39t108.5 -14.5q66 0 123 22.5t100 64.5t67.5 98.5t24.5 123.5q0 74 -30.5 131.5t-82 98.5t-115 62.5t-130.5 21.5q-27 0 -52.5 -2.5t-50.5 -12.5l-8 2z" />
<glyph unicode="4" horiz-adv-x="1130" d="M793 1372l217 -45l-197 -917l201 -43l-31 -146l-201 43l-59 -280l-158 34l60 281l-602 127l30 145zM221 535l434 -93l158 742z" />
<glyph unicode="5" horiz-adv-x="1124" d="M94 340q31 -47 79 -86t104.5 -67.5t116 -45t114.5 -16.5q76 0 137.5 25.5t104.5 71.5t65.5 109.5t22.5 137.5q0 70 -27 126t-71 97t-104.5 63.5t-127.5 22.5q-59 0 -118.5 -20.5t-98.5 -67.5l-127 27l151 715l746 -158l-31 -144l-600 127l-82 -385q41 29 94.5 41.5 t100.5 12.5q96 0 180 -36t145.5 -97.5t97 -144.5t35.5 -179q0 -106 -35.5 -197.5t-100 -158t-154.5 -104.5t-197 -38q-61 0 -126.5 13.5t-127 40t-117 64.5t-96.5 85l37 168z" />
<glyph unicode="6" horiz-adv-x="1202" d="M575 946q104 0 198.5 -32.5t166.5 -93t115 -147.5t43 -198q0 -104 -38 -194.5t-103.5 -156t-154.5 -103t-194 -37.5q-102 0 -196.5 35.5t-166 100t-114.5 153.5t-43 196q0 117 45 211t127 172l531 514l174 -37l-2 -10zM936 487q0 74 -28.5 133.5t-78 100.5t-114 63.5 t-133.5 22.5q-72 0 -132.5 -25.5t-104.5 -70.5t-69.5 -106.5t-25.5 -131.5q0 -72 27.5 -133t75.5 -106.5t111.5 -70t135.5 -24.5q74 0 135.5 28t105.5 75t69.5 110t25.5 135z" />
<glyph unicode="7" horiz-adv-x="1050" d="M874 1135l-649 139l31 143l895 -190l-930 -1204l-174 36z" />
<glyph unicode="8" horiz-adv-x="1206" d="M969 1012q0 57 -27 102t-70 76t-95 46t-103 15q-47 0 -90 -15t-76 -43t-52.5 -68t-19.5 -89q0 -61 25.5 -106t67.5 -76t95.5 -46t108.5 -15q47 0 90 15t75 45t51.5 70t19.5 89zM887 391q0 68 -31 120t-80 89t-110.5 55.5t-122.5 18.5q-59 0 -111.5 -18.5t-92.5 -52.5 t-63.5 -83t-23.5 -110q0 -70 30.5 -123.5t81 -90t113 -55t123.5 -18.5q57 0 109.5 18.5t92.5 54t62.5 85t22.5 110.5zM668 1399q84 0 167 -26.5t147.5 -78t104 -124t39.5 -164.5q0 -51 -17 -103.5t-49 -97.5t-76 -78t-95 -41q70 -55 110.5 -137t40.5 -172q0 -92 -35.5 -166 t-95 -126t-138.5 -81t-165 -29q-94 0 -185 30t-164 86t-118 137t-45 184q0 66 22.5 127t62.5 112t94.5 87t119.5 53q-55 45 -84.5 113.5t-29.5 139.5q0 80 31.5 145.5t86 112t124 72t147.5 25.5z" />
<glyph unicode="9" horiz-adv-x="1202" d="M287 53l387 373q-104 0 -198.5 33t-166 93t-114.5 147t-43 198q0 104 37.5 194.5t103 156t155 103.5t193.5 38q102 0 196.5 -36t166 -100.5t114.5 -153.5t43 -196q0 -117 -45 -211t-127 -172l-530 -514l-174 37zM313 885q0 -74 29 -133.5t78 -100.5t113.5 -63.5 t134.5 -22.5t131 25.5t105 71t69.5 105.5t25.5 132t-27.5 133.5t-75.5 105.5t-111.5 69.5t-135.5 25.5q-74 0 -135 -27.5t-105 -75t-70 -110.5t-26 -135z" />
<glyph unicode=":" horiz-adv-x="636" d="M29 180q23 51 69.5 68.5t96.5 -4.5q47 -23 66.5 -69t-3.5 -97t-71 -68.5t-95 4.5q-47 23 -66.5 68t3.5 98zM332 862q23 51 71 68.5t95 -4.5q47 -20 66.5 -66.5t-3.5 -99.5q-23 -49 -71 -66.5t-95 4.5q-47 23 -66.5 69t3.5 95z" />
<glyph unicode=";" horiz-adv-x="692" d="M391 836q23 51 69 68.5t93 -5.5q47 -20 66.5 -66.5t-3.5 -99.5q-23 -51 -69.5 -67.5t-93.5 4.5q-47 23 -66 69t4 97zM158 262l176 -78l-357 -334l-92 41z" />
<glyph unicode="&#x3c;" horiz-adv-x="1110" d="M913 162v-162h-10l-850 504v8l850 504h10v-162l-583 -346z" />
<glyph unicode="=" horiz-adv-x="1296" d="M1085 788v-147h-899v147h899zM1085 416v-148h-899v148h899z" />
<glyph unicode="&#x3e;" horiz-adv-x="1105" d="M748 508l-584 346v162h10l850 -504v-8l-850 -504h-10v162z" />
<glyph unicode="?" horiz-adv-x="948" d="M541 737q43 23 79.5 43.5t65.5 47t50.5 60.5t31.5 81q20 96 -31 173t-178 105q-55 12 -108.5 7t-98.5 -18t-82 -31.5t-57 -37.5l-10 2l35 164q27 16 66.5 32.5t87.5 26t100.5 11.5t105.5 -10q98 -20 167 -66.5t109.5 -108t54 -132t-0.5 -140.5t-45 -121t-70 -88 t-83 -63.5t-85 -48.5q-37 -20 -64.5 -36t-48 -37.5t-34 -54t-25.5 -85.5l-8 -37l-158 33l10 51q12 57 28.5 97t43.5 70.5t63 56t89 54.5zM209 141q10 55 53 81t94 16q49 -10 79 -52.5t18 -95.5q-10 -53 -54.5 -79.5t-93.5 -16.5q-51 10 -79.5 52t-16.5 95z" />
<glyph unicode="@" horiz-adv-x="2002" d="M1511 37q-94 0 -147 41t-90 106q-55 -57 -138 -95t-180 -38q-76 0 -154.5 27.5t-142 85t-103.5 144.5t-40 206q0 100 37 185t98.5 146.5t140 95.5t162.5 34q70 0 143.5 -24.5t135.5 -76.5v87h168v-613q0 -90 31.5 -126t78.5 -36q49 0 87 30t64 82t39 124t13 156 q0 135 -52 257.5t-145.5 215t-222.5 146.5t-284 54q-164 0 -300.5 -56t-234.5 -156.5t-152.5 -237.5t-54.5 -299q0 -158 55.5 -291t151.5 -229.5t227.5 -149.5t282.5 -53q119 0 218.5 28.5t160.5 67.5h4v-166q-59 -29 -155.5 -55.5t-229.5 -26.5q-195 0 -357.5 66.5 t-280.5 184.5t-183.5 276.5t-65.5 343.5q0 184 63.5 349t181.5 289t288 195.5t385 71.5q203 0 362.5 -74t270 -190.5t170 -263t59.5 -293.5q0 -127 -26.5 -227.5t-75 -171t-116 -108.5t-147.5 -38zM1233 715q-37 41 -104.5 75.5t-143.5 34.5q-72 0 -128 -24.5t-96 -67.5 t-61.5 -98t-21.5 -117q0 -72 23.5 -130t63.5 -99t95 -63.5t121 -22.5q72 0 142.5 35.5t109.5 89.5v387z" />
<glyph unicode="A" horiz-adv-x="1363" d="M795 1417l159 -33l263 -1460l-170 37l-58 356l-659 140l-199 -301l-166 34zM836 1217l-414 -625l539 -115z" />
<glyph unicode="B" horiz-adv-x="1323" d="M373 1440l528 -113q74 -16 137.5 -44t110.5 -73t74.5 -105.5t27.5 -139.5q0 -59 -18.5 -115.5t-52 -104t-82.5 -81t-109 -43.5q78 -45 126 -121t48 -168q0 -82 -28.5 -149.5t-78.5 -117t-120 -76t-150 -26.5q-70 0 -145 17l-553 118zM1087 965q0 51 -20 88t-53 62.5 t-75 40.5t-85 26l-352 75l-94 -440l352 -76q23 -4 42 -7t42 -3q51 0 96 16.5t78 47t51 74t18 96.5zM279 211l401 -84q51 -10 94 -10q104 0 167 63.5t63 167.5q0 51 -19.5 91t-51.5 69t-75 48t-88 30l-393 82z" />
<glyph unicode="C" horiz-adv-x="1329" d="M291 672q0 -131 48 -235.5t131 -176.5t193.5 -110.5t235.5 -38.5q63 0 124.5 11t119.5 38l10 -2l-35 -160q-59 -20 -120.5 -29.5t-120.5 -9.5q-154 0 -290 52t-238.5 145.5t-162 224.5t-59.5 289q0 152 53 287t147.5 236t224.5 159.5t286 58.5q141 0 282.5 -52 t245.5 -151l-35 -157l-8 2q-41 45 -98.5 83t-121 64.5t-129 40.5t-126.5 14q-123 0 -225.5 -47t-176 -127t-114.5 -185t-41 -224z" />
<glyph unicode="D" horiz-adv-x="1413" d="M772 1391q125 -27 228.5 -77t178 -128t115.5 -184.5t41 -241.5q0 -147 -41 -281.5t-120.5 -235t-200.5 -159.5t-281 -59q-72 0 -148.5 11t-154.5 26.5t-153.5 34t-143.5 32.5l287 1344zM1174 774q0 147 -62.5 237.5t-159 144.5t-215.5 83t-231 51l-221 -1046 q96 -20 195.5 -43t197.5 -23q129 0 222 49t153.5 132t90.5 190.5t30 224.5z" />
<glyph unicode="E" horiz-adv-x="1220" d="M1251 1274l-30 -150l-717 154l-86 -410l676 -143l-33 -147l-674 143l-104 -490l725 -153l-31 -150l-887 189l285 1343z" />
<glyph unicode="F" horiz-adv-x="1179" d="M1210 1202l-30 -149l-688 147l-86 -409l645 -138l-33 -147l-645 137l-135 -637l-160 33l284 1343z" />
<glyph unicode="G" horiz-adv-x="1400" d="M293 668q0 -133 50 -237.5t135 -175.5t197.5 -107.5t237.5 -36.5q31 0 63 3t60 11l86 397l-389 82l31 150l539 -115l-132 -623q-66 -31 -137 -43t-143 -12q-156 0 -295 50t-243.5 143.5t-165 224.5t-60.5 293q0 152 53 287t147.5 236t224.5 160.5t286 59.5 q68 0 140.5 -13t142 -39t132 -62.5t111.5 -86.5l-33 -159l-10 2q-41 49 -96.5 86t-120 63.5t-131 40t-127.5 13.5q-123 0 -224.5 -48.5t-175 -129.5t-113.5 -188t-40 -226z" />
<glyph unicode="H" horiz-adv-x="1478" d="M987 -55l137 641l-733 155l-137 -641l-160 35l285 1342l162 -33l-119 -553l733 -156l119 553l160 -35l-285 -1341z" />
<glyph unicode="I" horiz-adv-x="548" d="M76 41l286 1341l160 -34l-286 -1342z" />
<glyph unicode="J" horiz-adv-x="825" d="M592 330q-14 -70 -35.5 -130.5t-57.5 -104.5t-90.5 -69.5t-136.5 -25.5q-35 0 -78.5 7t-89 20.5t-87.5 30t-70 34.5l33 152q23 -16 57.5 -30.5t72 -27t74.5 -19.5t66 -7q53 0 88 27.5t56.5 69.5t32.5 92t22 95l192 910l160 -35z" />
<glyph unicode="K" horiz-adv-x="1251" d="M690 805l397 -877l-2 -10l-182 39l-350 768l-191 -123l-108 -508l-160 35l285 1341l160 -32l-136 -637l756 504l180 -37l-2 -11z" />
<glyph unicode="L" horiz-adv-x="1064" d="M90 111l285 1341l160 -33l-254 -1194l659 -141l-31 -147z" />
<glyph unicode="M" horiz-adv-x="1675" d="M829 530q31 41 60 82t59 82l436 570l234 -50l-285 -1343l-162 35l218 1020q10 41 18 81t18 80q-25 -37 -49 -73.5t-53 -73.5l-444 -575l-166 34l-174 707q-10 43 -17.5 85t-17.5 87q-6 -41 -13.5 -79t-17.5 -79l-217 -1020l-160 33l285 1344l233 -50l170 -698 q12 -49 22.5 -99.5t22.5 -99.5z" />
<glyph unicode="N" horiz-adv-x="1492" d="M1053 168l235 1118l160 -35l-285 -1341l-176 37l-502 1255q-4 -18 -8 -38.5t-12 -62.5t-23.5 -112.5t-40 -187.5t-60.5 -287t-87 -412l-160 35l285 1342l168 -35z" />
<glyph unicode="O" horiz-adv-x="1654" d="M291 682q0 -117 43 -220.5t117.5 -180t177 -120.5t219.5 -44q119 0 221 46t178 126t119 184.5t43 220.5q0 117 -43 219.5t-119 178t-177 119.5t-218 44q-119 0 -221.5 -46t-178 -123.5t-118.5 -182t-43 -221.5zM858 -37q-152 0 -284 54.5t-232 150.5t-157.5 226 t-57.5 284q0 152 54.5 285t150.5 232t227 156.5t283 57.5q150 0 282.5 -54.5t232 -150.5t158 -226t58.5 -282t-54.5 -284.5t-150.5 -232t-226 -158t-284 -58.5z" />
<glyph unicode="P" horiz-adv-x="1232" d="M813 426q-61 0 -119 12l-348 74l-108 -510l-162 33l286 1343l508 -108q78 -16 143.5 -49t114 -81t75 -113.5t26.5 -149.5q0 -94 -29 -176.5t-82 -143.5t-130 -96t-175 -35zM492 1196l-115 -537l328 -69q25 -4 49 -7t49 -3q66 0 115 23.5t80.5 63.5t48 94t16.5 116 q0 59 -21.5 102t-58.5 72.5t-85 49t-99 29.5z" />
<glyph unicode="Q" horiz-adv-x="1654" d="M1366 -164l-186 41l-74 131q-119 -47 -242 -47q-152 0 -286 54.5t-234 150.5t-158.5 227t-58.5 285q0 150 54.5 283t150.5 233t227 157.5t283 57.5q150 0 282.5 -54.5t232 -150.5t158 -226t58.5 -282q0 -193 -85 -356.5t-249 -265.5l129 -228zM868 461l181 -39l116 -213 q57 37 103.5 92t77 119.5t47 135.5t16.5 138q0 117 -43 218.5t-119 178t-177 120.5t-218 44q-119 0 -221.5 -46t-178 -124.5t-118.5 -183t-43 -221.5q0 -121 45 -224.5t123 -179t182 -118.5t225 -43q43 0 85 6t83 22l-168 308z" />
<glyph unicode="R" horiz-adv-x="1257" d="M694 705q154 -33 236 14t108 168q25 117 -27.5 199.5t-199.5 113.5l-307 66l-107 -498zM1051 -86l-2 -8l-185 39l-272 626l-227 50l-115 -547l-160 35l285 1341l483 -102q102 -23 175 -69t116 -111.5t55.5 -145.5t-6.5 -168q-18 -82 -58 -144.5t-97.5 -103.5t-127 -58.5 t-145.5 -10.5z" />
<glyph unicode="S" horiz-adv-x="1083" d="M999 1073q-29 39 -73.5 72t-98 57.5t-108.5 37.5t-101 13q-45 0 -88 -13t-75.5 -37.5t-53 -62.5t-20.5 -87q0 -61 43 -107.5t107.5 -87.5t139 -83t139 -96t108 -125t43.5 -171q0 -96 -34 -172t-93.5 -128t-139.5 -80t-172 -28q-63 0 -133 14.5t-136.5 40t-125.5 62.5 t-104 84l34 164l11 -2q33 -45 87 -83t116.5 -65.5t126 -44t118.5 -16.5q57 0 108.5 15.5t89.5 47t60.5 77.5t22.5 108q0 72 -43 125t-106.5 97t-139.5 86t-139.5 93t-106.5 118t-43 161q0 82 33 147.5t88 109.5t127 67.5t149 23.5q51 0 110.5 -12.5t118 -35t111 -54 t86.5 -70.5l-32 -162z" />
<glyph unicode="T" horiz-adv-x="1220" d="M393 12l254 1194l-467 99l33 147l1092 -231l-33 -148l-465 98l-254 -1194z" />
<glyph unicode="U" horiz-adv-x="1357" d="M326 442q0 -76 29.5 -133t78.5 -95t113.5 -56.5t136.5 -18.5q125 0 196.5 74t96.5 190l192 906l160 -33l-192 -907q-37 -174 -144.5 -279.5t-292.5 -105.5q-104 0 -201.5 27.5t-172 84t-120.5 141.5t-46 197q0 68 16 139l193 906l159 -33l-192 -905q-4 -25 -7 -49.5 t-3 -49.5z" />
<glyph unicode="V" horiz-adv-x="1335" d="M418 10l-207 1448l176 -39l127 -966q8 -61 14.5 -106.5l11.5 -80.5t9 -64.5t8 -60.5q16 27 32.5 52.5t35 55.5t42 67.5t56.5 91.5l506 833l174 -37l-778 -1237z" />
<glyph unicode="W" horiz-adv-x="2011" d="M514 281q12 25 26.5 53t39 75.5t62.5 119t98.5 182t146.5 269.5t205 380l137 -29l88 -1214l584 1071l165 -35l-716 -1251l-158 35l-86 1153q-129 -262 -269.5 -513t-279.5 -507l-168 36l-151 1436l165 -37z" />
<glyph unicode="X" horiz-adv-x="1314" d="M455 1450l264 -600l483 440l187 -39l-3 -10l-595 -524l370 -811l-2 -8l-184 39l-303 690l-555 -508l-187 39l2 10l664 590l-328 721l2 10z" />
<glyph unicode="Y" horiz-adv-x="1245" d="M215 1444l2 10l170 -37l252 -667l506 507l178 -38l-2 -11l-633 -620l-129 -608l-162 32l129 611z" />
<glyph unicode="Z" horiz-adv-x="1138" d="M281 1466l942 -200l-965 -1045l698 -149l-30 -146l-967 205l967 1045l-678 143z" />
<glyph unicode="[" horiz-adv-x="663" d="M397 -322l-377 80l357 1672l377 -80l-31 -138l-225 48l-297 -1395l225 -49z" />
<glyph unicode="\" horiz-adv-x="1079" d="M745 0l-532 1372h164l532 -1372h-164z" />
<glyph unicode="]" horiz-adv-x="659" d="M-74 -104l226 -48l297 1395l-226 49l29 138l377 -80l-357 -1672l-376 80z" />
<glyph unicode="^" horiz-adv-x="907" d="M498 1210l-197 -524h-160l289 686h131l291 -686h-158z" />
<glyph unicode="_" d="M836 -139v-133h-856v133h856z" />
<glyph unicode="`" horiz-adv-x="681" d="M362 1116l-190 295l219 -47l119 -279z" />
<glyph unicode="a" horiz-adv-x="1060" d="M711 395q-57 51 -143.5 79t-161.5 28q-41 0 -82 -10.5t-73 -32t-51.5 -55t-19.5 -80.5q0 -51 26.5 -89t66.5 -63t88.5 -36t91.5 -11q57 0 112.5 17.5t102.5 45.5zM766 684q0 63 -32 104t-81 65t-106.5 33t-108.5 9q-47 0 -97 -8t-91 -31l-10 2l32 154q45 18 97.5 25 t99.5 7q80 0 162 -20t148.5 -63t108.5 -110t42 -159q0 -43 -10 -90l-144 -678l-147 33l16 84q-51 -29 -110.5 -44t-118.5 -15q-72 0 -142.5 23.5t-128 67.5t-92.5 106.5t-35 139.5q0 80 31 142.5t83 103.5t121 62.5t142 21.5q39 0 87 -8t95.5 -22.5t90.5 -36t73 -47.5 q8 37 16.5 74.5t8.5 74.5z" />
<glyph unicode="b" horiz-adv-x="1259" d="M991 528q0 82 -30.5 151t-84 118t-124 75.5t-150.5 26.5q-57 0 -121.5 -17.5t-105.5 -56.5l-107 -501q55 -92 148.5 -145.5t201.5 -53.5q84 0 153 32.5t118 88t75.5 129t26.5 153.5zM633 1044q106 0 201.5 -40.5t166 -111.5t111.5 -166t41 -202q0 -113 -39 -213 t-109.5 -176t-168 -120t-211.5 -44q-117 0 -223.5 50.5t-178.5 142.5l-16 -86l-150 33l285 1341l160 -33l-90 -426q47 29 107.5 40t113.5 11z" />
<glyph unicode="c" horiz-adv-x="1021" d="M238 494q0 -90 33.5 -160t91 -118t134 -72.5t160.5 -24.5q45 0 92.5 7t88.5 30l10 -2l-33 -156q-41 -16 -86 -22.5t-92 -6.5q-117 0 -218.5 38t-178 107.5t-120.5 167t-44 218.5q0 111 40 210t110.5 173.5t168 119t209.5 44.5q49 0 102.5 -10.5t105.5 -30t99 -47 t84 -62.5l-32 -154l-9 2q-31 33 -70.5 61t-84.5 47t-92.5 29.5t-92.5 10.5q-86 0 -155.5 -32t-118.5 -85t-75.5 -126.5t-26.5 -155.5z" />
<glyph unicode="d" horiz-adv-x="1255" d="M958 694q-20 45 -59 82t-87 62.5t-101.5 39t-100.5 13.5q-84 0 -152.5 -32t-117.5 -87t-76.5 -128t-27.5 -155t29.5 -150.5t81.5 -117.5t123 -76.5t151 -27.5q63 0 121.5 19.5t109.5 53.5zM602 1042q111 0 217.5 -46t173.5 -134l92 424l158 -33l-287 -1341l-147 31l18 86 q-53 -29 -113.5 -43.5t-121.5 -14.5q-109 0 -202 41t-163.5 112t-110.5 165t-40 203q0 113 39 213t108.5 174.5t166.5 118.5t212 44z" />
<glyph unicode="e" horiz-adv-x="1114" d="M868 526q6 37 6 74q0 131 -78.5 215t-213.5 84q-55 0 -105.5 -18.5t-91.5 -51t-70.5 -77.5t-44.5 -99zM666 -37q-117 0 -223.5 34t-187.5 98.5t-130 160.5t-49 221q0 109 35.5 212.5t101.5 183t160 129t209 49.5q104 0 188 -37t142.5 -100.5t89 -151.5t30.5 -189 q0 -53 -7 -110t-24 -111l-761 162q-2 -12 -3 -24.5t-1 -24.5q0 -92 38.5 -158.5t102 -110.5t143.5 -64.5t160 -20.5q49 0 100 8t97 28l10 -2l-33 -151q-43 -18 -92 -24.5t-96 -6.5z" />
<glyph unicode="f" horiz-adv-x="724" d="M319 1030q12 59 25.5 117.5t40.5 103.5t72 73t118 28q51 0 109.5 -15.5t106.5 -38.5l-29 -141q-29 14 -74 27.5t-76 13.5q-41 0 -65.5 -20.5t-37.5 -50t-19.5 -65.5t-12.5 -67l279 -59l-31 -139l-276 59l-183 -854l-157 33l180 854l-187 39l31 141l186 -39v0z" />
<glyph unicode="g" horiz-adv-x="1232" d="M936 694q-23 47 -65 83t-92 60.5t-104 38t-104 13.5q-80 0 -144.5 -27.5t-110.5 -76t-71.5 -115t-25.5 -144.5t33 -142.5t88 -109.5t126 -69.5t144 -24.5q61 0 121 18.5t111 53.5zM950 -14q-37 -172 -131 -261.5t-278 -89.5q-66 0 -135.5 12.5t-139 34t-133 53.5 t-117.5 70l33 156l10 -2q39 -39 98.5 -70.5t127 -54t134 -35t122.5 -12.5q76 0 122 21.5t72.5 60.5t42 93t29.5 122q-96 -51 -215 -51q-104 0 -200.5 35.5t-170.5 100t-119 155t-45 198.5q0 111 37 206t103.5 165t160 109.5t205.5 39.5q117 0 230.5 -49t185.5 -145l18 88 l148 -33z" />
<glyph unicode="h" d="M410 987q47 29 106 43t115 14q78 0 148.5 -24.5t123.5 -69.5t84 -110.5t31 -147.5q0 -57 -12 -108l-138 -650l-157 35l131 623q4 23 8 46.5t4 47.5q0 55 -20.5 95t-55.5 65.5t-81 39t-95 13.5q-55 0 -120.5 -20.5t-106.5 -57.5l-160 -747l-158 32l285 1344l158 -35z" />
<glyph unicode="i" horiz-adv-x="479" d="M250 1020l160 -33l-211 -995l-160 35zM274 1276q0 47 31 81t80 34q47 0 83 -31t36 -80q0 -47 -31 -81t-78 -34t-84 31t-37 80z" />
<glyph unicode="j" horiz-adv-x="552" d="M352 1298q0 47 33 79t80 32t82 -31.5t35 -79.5q0 -47 -32 -79.5t-79 -32.5t-83 31.5t-36 80.5zM-12 -137q33 0 54 12t34.5 33.5t20.5 47.5t14 54l219 1028l157 -32l-215 -1008q-12 -59 -25.5 -111.5t-39 -92.5t-68.5 -63.5t-116 -23.5q-53 0 -109.5 15.5t-106.5 37.5 l29 138q37 -14 75 -24.5t77 -10.5z" />
<glyph unicode="k" horiz-adv-x="1019" d="M1032 936l-528 -381l360 -602l-2 -8l-192 39l-351 585l-104 -487l-158 33l285 1341l158 -33l-174 -817l524 379l184 -39z" />
<glyph unicode="l" horiz-adv-x="489" d="M47 35l287 1341l158 -35l-287 -1341z" />
<glyph unicode="m" horiz-adv-x="1716" d="M223 109l-160 34l211 994l152 -33l-20 -98q43 39 104 58t117 19q115 0 200.5 -56t126.5 -161q55 43 121 66.5t137 23.5q74 0 139.5 -23.5t113.5 -66.5t76 -104.5t28 -136.5q0 -57 -13 -113l-139 -657l-160 34l136 637q4 23 8 47.5t4 47.5q0 98 -65.5 145t-157.5 47 q-59 0 -114.5 -22.5t-96.5 -63.5q-4 -47 -13 -88l-139 -657l-157 34l135 637q4 23 8 46.5t4 45.5q0 98 -64.5 146.5t-156.5 48.5q-57 0 -112.5 -23.5t-94.5 -64.5z" />
<glyph unicode="n" d="M217 80l-160 35l213 993l148 -33l-21 -92q45 35 113 51.5t123 16.5q78 0 148.5 -25t123.5 -70t84 -110.5t31 -147.5q0 -57 -12 -108l-138 -649l-159 34l133 623q10 51 10 92q0 55 -20.5 96t-55.5 67t-80 39t-96 13q-55 0 -120.5 -19.5t-106.5 -58.5z" />
<glyph unicode="o" horiz-adv-x="1247" d="M76 494q0 113 39 212t108.5 174.5t166.5 119.5t212 44q113 0 211 -39.5t171 -110.5t115 -168t42 -210q0 -111 -39 -210t-107.5 -173t-165 -118t-208.5 -44q-113 0 -212.5 39t-173 108.5t-116.5 165t-43 210.5zM608 893q-82 0 -149.5 -32t-116.5 -86t-75.5 -125.5 t-26.5 -149.5t28.5 -146.5t77.5 -120t116.5 -81t145.5 -29.5q82 0 150.5 32.5t118 88t77 128t27.5 152.5t-28.5 147.5t-79 117t-118 77t-147.5 27.5z" />
<glyph unicode="p" horiz-adv-x="1255" d="M266 319q20 -45 59.5 -80.5t88.5 -61t101 -39t99 -13.5q84 0 154 31.5t119 86t75.5 127t26.5 154.5t-29.5 150.5t-81 119t-122 78t-150.5 27.5q-63 0 -121.5 -20.5t-111.5 -55.5zM625 -29q-111 0 -218.5 46t-175.5 135l-88 -406l-157 33l282 1325l148 -33l-19 -86 q53 29 113.5 44t120.5 15q109 0 203 -41.5t164.5 -112.5t110.5 -166t40 -202q0 -113 -39 -213t-108.5 -175t-165.5 -119t-211 -44z" />
<glyph unicode="q" horiz-adv-x="1257" d="M236 489q0 -84 30.5 -151.5t85 -116.5t126 -75.5t151.5 -26.5q55 0 118.5 16.5t104.5 54.5l106 502q-55 94 -146 147.5t-202 53.5q-84 0 -152.5 -33t-117.5 -88t-76.5 -129t-27.5 -154zM594 -29q-109 0 -203 42t-163.5 113t-110.5 166t-41 202q0 113 39 212t109.5 174.5 t166.5 119.5t211 44q117 0 223.5 -50t178.5 -142l18 86l147 -33l-280 -1323l-160 33l86 408q-47 -29 -107.5 -40.5t-113.5 -11.5z" />
<glyph unicode="r" horiz-adv-x="718" d="M379 889q45 51 106.5 79.5t128.5 28.5q37 0 75 -9t71 -19l-33 -164q-76 33 -147 33q-66 0 -125.5 -29t-100.5 -82l-149 -696l-158 32l211 996l152 -33z" />
<glyph unicode="s" horiz-adv-x="884" d="M772 745l-10 3q-18 31 -55 56t-80 45.5t-87 32t-77 11.5q-57 0 -102.5 -26.5t-45.5 -90.5q0 -43 32 -77.5t78 -65.5t101.5 -62.5t101.5 -72.5t77.5 -93.5t31.5 -123.5q0 -72 -23.5 -128.5t-66.5 -96.5t-101.5 -60.5t-127.5 -20.5q-47 0 -104.5 12.5t-115 34t-107.5 51 t-81 66.5l33 154l10 -2q27 -33 70 -62.5t93 -52t100.5 -36t91.5 -13.5q70 0 118.5 35t48.5 110q0 45 -31.5 80t-77.5 68t-101.5 64.5t-101.5 72.5t-77.5 93t-31.5 124q0 63 25.5 114.5t67.5 85.5t97 52t117 18q39 0 88 -10t96 -29.5t90 -46t70 -57.5z" />
<glyph unicode="t" horiz-adv-x="708" d="M358 287q-4 -23 -8 -45.5t-4 -44.5q0 -33 16 -56q10 -12 39 -23.5t62 -18.5t64.5 -11t47.5 -4l-30 -141q-53 0 -118 9t-120 33.5t-93 67.5t-38 111q0 33 5 63.5t12 61.5l126 598l-219 45l31 145l219 -47l56 260l157 -33l-55 -260l258 -55l-31 -143l-258 53z" />
<glyph unicode="u" d="M907 946l160 -35l-213 -993l-147 31l20 92q-51 -35 -113.5 -50.5t-121.5 -15.5q-76 0 -147 22.5t-126 65.5t-88 106.5t-33 143.5q0 27 4 52.5t9 50.5l141 669l160 -34l-138 -648q-10 -41 -10 -77q0 -53 22.5 -92t59.5 -64t83 -37t95 -12q57 0 120 19.5t106 58.5z" />
<glyph unicode="v" horiz-adv-x="1097" d="M324 10l-181 1077l170 -36l138 -916l497 780l166 -34l-598 -912z" />
<glyph unicode="w" horiz-adv-x="1683" d="M1139 -86l-189 41l-65 827l-393 -731l-197 43l-135 1067l155 -33l107 -897l426 783l170 -35l59 -887l457 776l156 -32z" />
<glyph unicode="x" horiz-adv-x="1085" d="M188 1104l181 -37l190 -428l348 313l174 -37l-2 -10l-440 -387l285 -598l-2 -10l-181 39l-225 491l-410 -356l-172 37l3 10l497 430l-248 533z" />
<glyph unicode="y" horiz-adv-x="1120" d="M135 -281l215 299l-213 1086l172 -37l164 -877l494 738l174 -37l-838 -1206z" />
<glyph unicode="z" horiz-adv-x="983" d="M758 -72l-807 170l739 736l-526 112l31 139l796 -167l-735 -738l532 -112z" />
<glyph unicode="{" horiz-adv-x="589" d="M578 1235q-37 0 -60.5 -12.5t-37 -34t-21.5 -50t-15 -59.5l-59 -276q-6 -29 -17.5 -67t-30 -73.5t-45 -63.5t-63.5 -36q37 -29 49.5 -67.5t12.5 -81.5q0 -61 -13.5 -124t-30 -125.5t-29.5 -123.5t-13 -119q0 -63 41 -87.5t94 -39.5l-25 -119q-51 10 -99 25.5t-85 43.5 t-59.5 69t-22.5 100q0 43 10 90l84 402q4 12 6.5 27.5t2.5 31.5q0 39 -16.5 64.5t-47.5 45.5l8 46q59 10 84 43.5t37 89.5l86 399q23 98 73 155.5t156 57.5q35 0 70 -6l70 -12l-27 -119q-34 6 -67 6z" />
<glyph unicode="|" horiz-adv-x="546" d="M16 -260l357 1673l149 -33l-356 -1673z" />
<glyph unicode="}" horiz-adv-x="589" d="M2 -125q37 0 60.5 12.5t37 34t21.5 50t14 59.5l58 272q6 33 17 71t29.5 71.5t45 59t65.5 34.5q-37 31 -49 73.5t-12 83.5q0 61 13 124t29.5 125.5t30 122.5t13.5 120q0 63 -41 87.5t-94 39.5l24 119q51 -10 99.5 -25.5t85 -43.5t59 -69t22.5 -100q0 -43 -10 -90l-84 -401 q-4 -14 -6 -28.5t-2 -31.5q0 -39 16.5 -64.5t47.5 -45.5l-9 -46q-59 -10 -83.5 -43.5t-37.5 -89.5l-86 -399q-23 -98 -72.5 -155.5t-156.5 -57.5q-35 0 -69.5 6t-69.5 12l26 119q33 -6 68 -6z" />
<glyph unicode="~" horiz-adv-x="1101" d="M154 489v152q29 25 69.5 41t108.5 16q72 0 126 -28.5t111 -59.5q45 -25 88 -44t97 -19q66 0 108.5 23.5t65.5 50.5h6v-158q-25 -23 -71 -41.5t-103 -18.5q-72 0 -128.5 21.5t-109.5 50.5t-101 54.5t-104 25.5q-57 0 -99 -24.5t-58 -41.5h-6z" />
<glyph unicode="&#xa1;" horiz-adv-x="610" d="M168 -338v977h162v-977h-162zM125 920q0 55 36 89.5t89 34.5q51 0 88 -34.5t37 -89.5t-37 -90t-88 -35q-53 0 -89 35t-36 90z" />
<glyph unicode="&#xa2;" horiz-adv-x="1103" d="M512 -213v195q-98 18 -177 66t-134.5 118t-85 158t-29.5 184q0 84 26.5 169t80 157.5t133.5 126t186 73.5v195h154v-187q78 -4 144.5 -27.5t104.5 -47.5v-156h-10q-41 31 -110.5 56.5t-161.5 25.5q-78 0 -147.5 -25.5t-123 -75t-84 -121t-30.5 -163.5q0 -86 29.5 -156.5 t81 -122t120 -79t148.5 -27.5q86 0 164.5 24.5t123.5 61.5h11v-158q-41 -27 -106.5 -50.5t-153.5 -27.5v-186h-154z" />
<glyph unicode="&#xa3;" horiz-adv-x="1212" d="M154 791h176q-35 66 -61.5 131t-26.5 133q0 82 31.5 147.5t87 111.5t131 70.5t165.5 24.5q53 0 99.5 -11.5t83.5 -26.5t63.5 -34.5t44.5 -33.5v-168h-8q-39 41 -109.5 80.5t-168.5 39.5q-111 0 -185 -55t-74 -147q0 -70 30 -133.5t71 -128.5h346v-134h-272 q23 -49 38 -100t15 -111q0 -47 -15.5 -92t-40 -85t-57.5 -70.5t-67 -44.5v-4h569v-150h-862v131q55 16 111.5 41t101.5 61.5t73.5 89t28.5 123.5q0 51 -16.5 104.5t-53.5 106.5h-249v134z" />
<glyph unicode="&#xa4;" horiz-adv-x="1208" d="M211 633q0 66 19.5 124t54.5 109l-84 84l96 97l84 -84q51 35 110.5 55t124.5 20q66 0 125.5 -20.5t110.5 -54.5l84 84l96 -97l-86 -86q35 -49 55.5 -107.5t20.5 -123.5q0 -66 -20.5 -125t-55.5 -109l86 -84l-96 -96l-84 84q-51 -35 -110.5 -55.5t-125.5 -20.5t-126 20.5 t-109 55.5l-84 -84l-96 96l84 84q-74 103 -74 234zM616 340q61 0 114.5 23.5t91.5 63.5t60.5 93t22.5 113q0 59 -22.5 112.5t-60.5 93.5t-91 63.5t-115 23.5q-61 0 -114 -23.5t-91 -63.5t-60.5 -93.5t-22.5 -112.5t22.5 -112.5t60.5 -93.5t91 -63.5t114 -23.5z" />
<glyph unicode="&#xa5;" horiz-adv-x="1363" d="M356 758h262l-391 604v10h174l385 -602l390 602h182v-10l-402 -604h261v-133h-349v-129h349v-134h-349v-362h-163v362h-349v134h349v129h-349v133z" />
<glyph unicode="&#xa6;" horiz-adv-x="546" d="M236 768l137 645l151 -33l-137 -645zM305 352l-137 -645l-152 33l138 645z" />
<glyph unicode="&#xa7;" horiz-adv-x="1081" d="M217 -119q41 -37 117 -67.5t160 -30.5q100 0 154 47t54 100q0 33 -8 59.5t-29.5 53.5t-59.5 55.5t-95 65.5l-199 119q-92 57 -138 124.5t-46 159.5q0 61 20.5 109.5t53 82.5t72.5 55.5t77 29.5q-20 14 -47 37.5t-51.5 56.5t-40.5 75t-16 93q0 68 25.5 124t71.5 96 t109.5 61.5t141.5 21.5q92 0 156.5 -24.5t107.5 -55.5v-164h-10q-35 35 -97.5 65t-140.5 30q-96 0 -149.5 -40t-53.5 -106q0 -35 12.5 -63.5t37 -53t60.5 -50t81 -54.5l172 -111q98 -61 154.5 -125.5t56.5 -169.5q0 -59 -17.5 -102t-47 -76t-69.5 -54.5t-85 -35.5 q63 -51 108 -114.5t45 -161.5q0 -141 -95 -225.5t-261 -84.5q-111 0 -187.5 31t-113.5 51v166h10zM285 584q0 -59 30.5 -100.5t90.5 -77.5l176 -109q35 6 68.5 18.5t60 33t43 49t16.5 67.5q0 59 -34 106t-101 88l-170 101q-72 -12 -126 -52t-54 -124z" />
<glyph unicode="&#xa8;" horiz-adv-x="919" d="M147 1348q10 47 47 70.5t80 13.5q45 -10 70 -45t14 -82q-10 -47 -47 -70t-82 -12q-43 10 -67.5 45t-14.5 80zM561 1262q10 47 46 70.5t81 13.5q43 -10 67.5 -46t14.5 -83t-47 -70t-80 -12q-45 10 -68.5 45t-13.5 82z" />
<glyph unicode="&#xa9;" horiz-adv-x="1781" d="M1688 680q0 -162 -60.5 -303t-165 -245.5t-246 -164t-303.5 -59.5q-164 0 -305 59.5t-245.5 164t-165 245.5t-60.5 303t60.5 302t165 244.5t246 164t304.5 59.5q162 0 303.5 -59.5t246 -164t165 -244.5t60.5 -302zM1565 680q0 137 -50.5 256t-138.5 206t-206.5 136 t-256.5 49q-139 0 -258.5 -49t-207 -136t-137.5 -206t-50 -256t50 -255t137.5 -204t207 -135t258.5 -49q137 0 257 49t207 135t137.5 204t50.5 255zM1176 920q-55 37 -111.5 53t-116.5 16q-66 0 -122 -22.5t-97 -62.5t-64.5 -96t-23.5 -124t23.5 -123t64.5 -95t98.5 -62.5 t122.5 -22.5q63 0 126 21.5t112 54.5h10v-135q-47 -29 -117.5 -48.5t-132.5 -19.5q-92 0 -174 31.5t-142.5 88t-95 135.5t-34.5 175q0 94 33.5 174t94 137.5t141.5 89t173 31.5q72 0 132.5 -19.5t107.5 -47.5v-129h-8z" />
<glyph unicode="&#xaa;" horiz-adv-x="747" d="M258 1235v113q18 14 70.5 33.5t122.5 19.5q109 0 178 -53.5t69 -159.5v-406h-116v49q-16 -18 -59.5 -41.5t-112.5 -23.5q-92 0 -154.5 51t-62.5 144q0 49 20 85.5t55 62.5t82 39t101 13q41 0 72.5 -7t45.5 -13v35q0 59 -36.5 86.5t-96.5 27.5q-53 0 -99 -17.5t-71 -37.5 h-8zM473 1067q-66 0 -110 -26.5t-44 -75.5t37 -71t86 -22q41 0 75 15.5t52 36.5v125q-10 4 -33.5 11t-62.5 7z" />
<glyph unicode="&#xab;" horiz-adv-x="1075" d="M512 125v-10h-154l-264 397l277 406h151v-11l-270 -395zM889 125v-10h-154l-264 397l277 406h151v-11l-270 -395z" />
<glyph unicode="&#xac;" horiz-adv-x="1228" d="M877 635h-709v153h872v-540h-163v387z" />
<glyph unicode="&#xad;" horiz-adv-x="833" d="M674 602v-147h-537v147h537z" />
<glyph unicode="&#xae;" horiz-adv-x="1781" d="M1688 680q0 -162 -60.5 -303t-165 -245.5t-246 -164t-303.5 -59.5q-164 0 -305 59.5t-245.5 164t-165 245.5t-60.5 303t60.5 302t165 244.5t246 164t304.5 59.5q162 0 303.5 -59.5t246 -164t165 -244.5t60.5 -302zM1565 680q0 137 -50.5 256t-138.5 206t-206.5 136 t-256.5 49q-139 0 -258.5 -49t-207 -136t-137.5 -206t-50 -256t50 -255t137.5 -204t207 -135t258.5 -49q137 0 257 49t207 135t137.5 204t50.5 255zM1276 268h-148l-221 334h-137v-334h-133v832h311q70 0 123 -19.5t90 -53.5t55.5 -79t18.5 -94q0 -57 -17.5 -99t-44 -71 t-60.5 -46t-66 -26l229 -333v-11zM770 719h158q92 0 132 31.5t40 103.5q0 59 -40 92t-132 33h-158v-260z" />
<glyph unicode="&#xaf;" horiz-adv-x="907" d="M135 1319l25 117l612 -129l-24 -117z" />
<glyph unicode="&#xb0;" horiz-adv-x="755" d="M766 1100q0 -61 -21.5 -112.5t-59.5 -89.5t-90 -59.5t-112 -21.5q-59 0 -111.5 21.5t-90 59.5t-59 89t-21.5 113q0 61 21.5 112.5t59 89t90 59t111.5 21.5t111.5 -21.5t90.5 -59t59.5 -89t21.5 -112.5zM317 1100q0 -76 45.5 -124t120.5 -48q78 0 122 48t44 124 q0 74 -44 124t-122 50q-76 0 -121 -50t-45 -124z" />
<glyph unicode="&#xb1;" horiz-adv-x="1206" d="M489 236v335h-374v144h374v329h150v-329h375v-144h-375v-335h-150zM1014 141v-141h-897v141h897z" />
<glyph unicode="&#xb2;" horiz-adv-x="784" d="M709 715v-107h-486v84l252 291q39 45 72 85t33 91q0 66 -45.5 98.5t-110.5 32.5q-59 0 -112.5 -30.5t-78.5 -65.5h-8v129q27 25 80 51.5t131 26.5q123 0 193.5 -66.5t70.5 -169.5q0 -66 -34.5 -121t-71.5 -98l-203 -231h318z" />
<glyph unicode="&#xb3;" horiz-adv-x="747" d="M487 1098q104 -16 167 -86t63 -162q0 -66 -23.5 -116t-63.5 -84t-93.5 -52t-112.5 -18q-66 0 -117 18t-82 41v119h8q29 -27 79 -47.5t104 -20.5q78 0 128 46t50 112q0 72 -50 114t-128 42q-29 0 -58.5 -5.5t-46.5 -13.5h-4v74l142 141q16 16 34.5 32.5t36.5 33.5h-295 v106h451v-84z" />
<glyph unicode="&#xb4;" horiz-adv-x="681" d="M121 1169l221 205l219 -47l-293 -190z" />
<glyph unicode="&#xb5;" horiz-adv-x="1257" d="M854 1016h162v-1016h-152v94q-47 -51 -129 -87t-172 -36q-129 0 -217 47v-385h-162v1383h162v-662q0 -127 63.5 -180t172.5 -53q49 0 92 13t77.5 32.5t61.5 42t41 43.5v764z" />
<glyph unicode="&#xb6;" horiz-adv-x="1462" d="M672 653h-56q-92 0 -174 21.5t-143 64.5t-98 111t-37 160t33.5 160.5t94 112.5t143.5 66.5t181 22.5h699v-106h-164v-1604h-133v1604h-213v-1604h-133v991z" />
<glyph unicode="&#xb7;" horiz-adv-x="512" d="M147 676q0 55 36 90t89 35q51 0 88 -35t37 -90t-36.5 -90t-88.5 -35q-53 0 -89 35t-36 90z" />
<glyph unicode="&#xb8;" horiz-adv-x="591" d="M498 -156l-66 -305l-319 68l24 117l191 -41l39 188z" />
<glyph unicode="&#xb9;" horiz-adv-x="552" d="M190 1255l185 117h92v-764h-119v623l-145 -92h-13v116z" />
<glyph unicode="&#xba;" horiz-adv-x="829" d="M193 1075q0 70 24.5 129.5t68.5 103.5t102 68.5t126 24.5t127 -24.5t103 -67.5t69 -102.5t25 -131.5q0 -70 -25 -129t-69 -102t-103 -66.5t-127 -23.5t-126 23.5t-102 66.5t-68.5 102t-24.5 129zM324 1075q0 -86 51 -144.5t139 -58.5q86 0 139.5 58.5t53.5 144.5 q0 88 -53.5 148.5t-139.5 60.5q-88 0 -139 -58.5t-51 -150.5z" />
<glyph unicode="&#xbb;" horiz-adv-x="1087" d="M805 512l-270 395v11h151l277 -406l-265 -397h-153v10zM428 512l-270 395v11h151l277 -406l-264 -397h-154v10z" />
<glyph unicode="&#xbc;" horiz-adv-x="1536" d="M246 1384l205 76l90 -18l-160 -748l-115 25l129 608l-162 -59l-12 2zM168 127l1079 1163l127 -26l-2 -11l-1081 -1163l-125 29zM1225 674l149 -33l-106 -498l98 -20l-23 -105l-98 21l-31 -143l-114 24l30 143l-335 72l20 92zM944 213l207 -45l86 373z" />
<glyph unicode="&#xbd;" horiz-adv-x="1576" d="M1364 -25l-23 -104l-475 100l19 82l305 234q47 35 88 67.5t51 81.5q14 63 -22.5 105.5t-102.5 54.5q-59 14 -116.5 -5.5t-90.5 -47.5l-6 2l27 125q31 18 88 33.5t133 -1.5q123 -27 177 -106.5t34 -177.5q-14 -66 -59 -112t-93 -81l-141 -108l-104 -76zM244 1386l205 76 l90 -18l-158 -748l-117 25l129 610l-162 -61l-12 4zM156 133l1081 1163l125 -26l-2 -10l-1079 -1164l-127 27z" />
<glyph unicode="&#xbe;" horiz-adv-x="1615" d="M494 1182q78 -29 127 -92.5t49 -147.5q0 -59 -21.5 -107.5t-58.5 -82t-87 -53t-106 -19.5q-66 0 -138.5 27.5t-117.5 78.5l25 117l8 -2q35 -45 93.5 -76.5t113.5 -31.5q70 0 119 43t49 114q0 43 -19.5 74t-51.5 50.5t-69.5 28.5t-74.5 9q-20 0 -41 -4l16 74 q61 41 125 78.5t125 78.5l-289 62l23 104l440 -94l-16 -82zM250 121l1081 1163l127 -27l-4 -10l-1079 -1163l-127 27zM1303 668l149 -33l-106 -498l98 -20l-23 -105l-98 21l-31 -144l-114 25l30 143l-336 72l21 92zM1022 207l207 -45l86 373z" />
<glyph unicode="&#xbf;" horiz-adv-x="925" d="M367 297q-43 -23 -80 -44.5t-67 -47t-50 -59t-31 -83.5q-20 -94 31 -170.5t178 -105.5q55 -12 108.5 -7t98.5 18.5t81 31.5t58 37l11 -2l-35 -164q-29 -16 -69 -32.5t-88 -26t-100.5 -11.5t-103.5 11q-98 20 -166.5 66t-109.5 107.5t-54.5 132t1.5 140.5q14 70 44.5 121 t69.5 88t82 63.5t84 49.5q39 20 66.5 35.5t47 37t34 53t26.5 85.5l4 20l158 -33l-6 -33q-12 -57 -28.5 -97t-43 -71.5t-63.5 -57t-88 -52.5zM694 874q-10 -55 -53 -80.5t-94 -15.5q-49 10 -79 52t-17 96q10 53 54 79.5t93 16.5q53 -10 80.5 -52.5t15.5 -95.5z" />
<glyph unicode="&#xc0;" horiz-adv-x="1363" d="M854 1526l-192 293l221 -47l118 -279zM795 1417l159 -33l263 -1460l-170 37l-58 356l-659 140l-199 -301l-166 34zM836 1217l-414 -625l539 -115z" />
<glyph unicode="&#xc1;" horiz-adv-x="1363" d="M797 1536l221 207l221 -47l-293 -191zM795 1417l159 -33l263 -1460l-170 37l-58 356l-659 140l-199 -301l-166 34zM836 1217l-414 -625l539 -115z" />
<glyph unicode="&#xc2;" horiz-adv-x="1359" d="M612 1577l240 201l199 -41l137 -283l-137 29l-117 190l-180 -127zM795 1417l159 -33l263 -1460l-170 37l-58 356l-659 140l-199 -301l-166 34zM836 1217l-414 -625l539 -115z" />
<glyph unicode="&#xc3;" horiz-adv-x="1363" d="M1071 1518q-61 0 -99 25.5t-65.5 55t-50 55t-55.5 25.5q-31 0 -48.5 -21.5t-23.5 -49.5l-119 45q16 66 63.5 109.5t117.5 43.5q61 0 97 -25.5t61.5 -55t49 -55t60.5 -25.5q29 0 47 22.5t27 48.5l118 -45q-16 -66 -63 -109.5t-117 -43.5zM795 1417l159 -33l263 -1460 l-170 37l-58 356l-659 140l-199 -301l-166 34zM836 1217l-414 -625l539 -115z" />
<glyph unicode="&#xc4;" horiz-adv-x="1363" d="M621 1712q0 45 29.5 77t74.5 32t78 -30t33 -75q0 -47 -29 -77.5t-76 -30.5q-45 0 -77.5 28.5t-32.5 75.5zM1034 1624q0 45 29 77t76 32q45 0 77.5 -30t32.5 -77q0 -45 -30.5 -75.5t-75.5 -30.5t-77 29.5t-32 74.5zM795 1417l159 -33l263 -1460l-170 37l-58 356l-659 140 l-199 -301l-166 34zM836 1217l-414 -625l539 -115z" />
<glyph unicode="&#xc5;" horiz-adv-x="1355" d="M1081 1518q0 -57 -34.5 -102.5t-88.5 -63.5l256 -1428l-167 37l-58 354l-659 142l-199 -301l-166 34l811 1203q-27 25 -42 59.5t-15 71.5t14.5 67.5t39 53t57 36t67.5 13.5q37 0 69.5 -13.5t58.5 -37t41 -56t15 -69.5zM899 1430q41 0 64.5 27.5t23.5 66.5 q0 41 -26.5 63.5t-65.5 22.5t-63.5 -27t-24.5 -63q0 -39 27.5 -64.5t64.5 -25.5zM834 1217l-414 -625l538 -115z" />
<glyph unicode="&#xc6;" horiz-adv-x="1966" d="M1073 1227l-88 18l-502 -655l435 -92zM147 162l-170 37l953 1200l1046 -223l-30 -148l-715 152l-88 -408l676 -145l-31 -148l-676 144l-104 -490l725 -153l-31 -148l-885 188l70 328l-510 109z" />
<glyph unicode="&#xc7;" horiz-adv-x="1298" d="M698 -109l-65 -305l-320 68l25 117l190 -41l39 188zM260 672q0 -131 48 -235.5t131 -176.5t193.5 -110.5t235.5 -38.5q63 0 125 11t119 38l10 -2l-35 -160q-59 -20 -120.5 -29.5t-120.5 -9.5q-154 0 -290 52t-238.5 145.5t-162 224.5t-59.5 289q0 152 53.5 287t147.5 236 t224 159.5t286 58.5q141 0 282.5 -52t245.5 -151l-35 -157l-8 2q-41 45 -98 83t-120.5 64.5t-129 40.5t-127.5 14q-123 0 -225.5 -47t-176 -127t-114.5 -185t-41 -224z" />
<glyph unicode="&#xc8;" horiz-adv-x="1222" d="M1253 1274l-30 -150l-715 154l-88 -410l676 -143l-31 -147l-676 143l-104 -490l725 -153l-31 -150l-885 189l285 1343zM809 1487l-191 295l222 -47l118 -279z" />
<glyph unicode="&#xc9;" horiz-adv-x="1222" d="M1253 1274l-30 -150l-715 154l-88 -410l676 -143l-31 -147l-676 143l-104 -490l725 -153l-31 -150l-885 189l285 1343zM717 1507l223 205l219 -47l-293 -190z" />
<glyph unicode="&#xca;" horiz-adv-x="1200" d="M1253 1274l-30 -150l-715 154l-88 -410l676 -143l-31 -147l-676 143l-104 -490l725 -153l-31 -150l-885 189l285 1343zM555 1542l240 201l198 -41l137 -283l-137 29l-116 190l-181 -127z" />
<glyph unicode="&#xcb;" horiz-adv-x="1222" d="M1253 1274l-30 -150l-715 154l-88 -410l676 -143l-31 -147l-676 143l-104 -490l725 -153l-31 -150l-885 189l285 1343zM567 1677q0 43 31 76t76 33t76.5 -30t31.5 -77q0 -45 -29.5 -76.5t-76.5 -31.5t-78 29.5t-31 76.5zM981 1589q0 45 29.5 77t74.5 32q47 0 79 -31 t32 -78q0 -45 -31.5 -75.5t-77.5 -30.5q-45 0 -75.5 30.5t-30.5 75.5z" />
<glyph unicode="&#xcc;" horiz-adv-x="534" d="M76 39l284 1341l160 -32l-284 -1344zM428 1485l-190 295l221 -47l119 -279z" />
<glyph unicode="&#xcd;" horiz-adv-x="581" d="M76 39l284 1341l160 -32l-284 -1344zM350 1503l221 205l222 -47l-293 -191z" />
<glyph unicode="&#xce;" horiz-adv-x="604" d="M76 37l284 1343l160 -34l-284 -1342zM176 1538l240 203l198 -43l138 -281l-138 29l-116 190l-181 -127z" />
<glyph unicode="&#xcf;" horiz-adv-x="550" d="M78 41l284 1341l160 -32l-284 -1344zM186 1677q0 45 31 77t76 32t76.5 -30t31.5 -75q0 -47 -29.5 -78.5t-76.5 -31.5q-45 0 -77 29.5t-32 76.5zM600 1589q0 45 28.5 77t76.5 32q47 0 78.5 -31t31.5 -78q0 -45 -31.5 -74.5t-74.5 -29.5q-45 0 -77 29.5t-32 74.5z" />
<glyph unicode="&#xd0;" horiz-adv-x="1439" d="M799 1391q125 -27 228 -77t178 -128t116 -184.5t41 -241.5q0 -147 -41 -281.5t-121 -235t-200.5 -159.5t-280.5 -59q-72 0 -148.5 11t-154.5 26.5t-154 34t-143 32.5l131 612l-180 39l26 131l180 -39l130 601zM1200 774q0 147 -62.5 237.5t-158.5 144.5t-215 83t-232 51 l-96 -452l359 -76l-29 -129l-356 76l-99 -465q96 -20 195.5 -43t198.5 -23q129 0 222 49t153.5 132t90 190.5t29.5 224.5z" />
<glyph unicode="&#xd1;" horiz-adv-x="1497" d="M1065 1495q-61 0 -99 25.5t-65 55.5t-50.5 55.5t-55.5 25.5q-31 0 -49.5 -21.5t-24.5 -50.5l-117 47q14 66 62.5 109t115.5 43q61 0 97 -25.5t62 -55.5t49.5 -55.5t60.5 -25.5q31 0 49 22.5t26 49.5l117 -45q-14 -66 -61 -110t-117 -44zM1057 168q10 53 21.5 106.5 t21.5 106.5l192 905l160 -35l-285 -1341l-176 37l-502 1255q-10 -53 -20 -102t-20 -103l-191 -895l-160 35l285 1342l168 -35l418 -1047z" />
<glyph unicode="&#xd2;" horiz-adv-x="1607" d="M293 680q0 -117 43 -219.5t117.5 -179t177 -120.5t219.5 -44q119 0 221.5 46t178 125t118.5 183t43 221t-43 219.5t-118.5 179t-178 120.5t-219.5 44q-119 0 -221.5 -46t-177 -124.5t-117.5 -183t-43 -221.5zM858 -39q-152 0 -284 54.5t-232 150.5t-157.5 227t-57.5 285 q0 152 54.5 285t150.5 232t227 156.5t285 57.5q150 0 283 -55.5t233 -151.5t157.5 -227t57.5 -283t-55.5 -284t-151.5 -232t-227 -157.5t-283 -57.5zM961 1483l-191 295l221 -47l119 -279z" />
<glyph unicode="&#xd3;" horiz-adv-x="1624" d="M920 1495l221 207l221 -47l-295 -191zM291 682q0 -117 43 -220.5t117.5 -180t177 -120.5t219.5 -44q119 0 221 46t178 126t119 184.5t43 220.5q0 117 -43 219.5t-119 178t-177 119.5t-218 44q-119 0 -221.5 -46t-178 -123.5t-118.5 -182t-43 -221.5zM858 -37 q-152 0 -284 54.5t-232 150.5t-157.5 226t-57.5 284q0 152 54.5 285t150.5 232t227 156.5t283 57.5q150 0 282.5 -54.5t232 -150.5t158 -226t58.5 -282t-54.5 -284.5t-150.5 -232t-226 -158t-284 -58.5z" />
<glyph unicode="&#xd4;" horiz-adv-x="1632" d="M293 680q0 -117 43 -219.5t117.5 -179t177 -120.5t219.5 -44q119 0 221.5 46t178 125t118.5 183t43 221t-43 219.5t-118.5 179t-178 120.5t-219.5 44q-119 0 -221.5 -46t-177 -124.5t-117.5 -183t-43 -221.5zM858 -39q-152 0 -284 54.5t-232 150.5t-157.5 227t-57.5 285 q0 152 54.5 285t150.5 232t227 156.5t285 57.5q150 0 283 -55.5t233 -151.5t157.5 -227t57.5 -283t-55.5 -284t-151.5 -232t-227 -157.5t-283 -57.5zM729 1532l240 203l198 -43l138 -283l-138 31l-116 188l-183 -125z" />
<glyph unicode="&#xd5;" horiz-adv-x="1656" d="M1188 1477q-61 0 -99 25.5t-65 55t-50.5 55t-53.5 25.5q-31 0 -49.5 -21.5t-24.5 -49.5l-119 45q16 66 62.5 109.5t115.5 43.5q61 0 97 -25.5t62 -55t49.5 -55t60.5 -25.5q31 0 49 22.5t26 48.5l119 -47q-16 -66 -64 -108.5t-116 -42.5zM293 682q0 -117 43 -219.5 t117.5 -179t177 -120.5t219.5 -44q119 0 221.5 46t178 125t118.5 183.5t43 220.5q0 117 -43 219.5t-118.5 179t-178 120.5t-219.5 44q-119 0 -221.5 -46t-177 -123.5t-117.5 -183t-43 -222.5zM862 -37q-152 0 -286 54.5t-233 150.5t-157.5 227t-58.5 285q0 150 55.5 283 t151.5 233t227 157.5t283 57.5q150 0 283 -55.5t233 -151.5t157.5 -227t57.5 -283t-54.5 -283.5t-150.5 -232t-226 -158t-282 -57.5z" />
<glyph unicode="&#xd6;" horiz-adv-x="1632" d="M293 680q0 -117 43 -219.5t117.5 -179t177 -120.5t219.5 -44q119 0 221.5 46t178 125t118.5 183t43 221t-43 219.5t-118.5 179t-178 120.5t-219.5 44q-119 0 -221.5 -46t-177 -123.5t-117.5 -183t-43 -222.5zM862 -39q-152 0 -286 54.5t-233 150.5t-157.5 227t-58.5 285 q0 150 55.5 283t151.5 233t227 157.5t283 57.5q150 0 283 -55.5t233 -151.5t157.5 -227t57.5 -283t-54.5 -284t-150.5 -232t-226 -157.5t-282 -57.5zM737 1669q0 43 31 76t76 33t76.5 -31t31.5 -78q0 -45 -30.5 -75.5t-75.5 -30.5q-47 0 -78 29.5t-31 76.5zM1151 1581 q0 45 29.5 77t74.5 32q47 0 79 -31t32 -78q0 -45 -31.5 -75.5t-77.5 -30.5q-45 0 -75.5 30.5t-30.5 75.5z" />
<glyph unicode="&#xd7;" horiz-adv-x="1220" d="M705 528l358 -360l-105 -105l-358 361l-360 -363l-105 105l361 362l-359 361l105 104l358 -360l358 358l105 -104z" />
<glyph unicode="&#xd8;" horiz-adv-x="1656" d="M858 -37q-152 0 -290 56.5t-244 164.5l-136 -100l-75 106l129 95q-57 88 -86 188t-29 205q0 152 54.5 285t150.5 232t227 156.5t285 57.5q164 0 311.5 -66.5t251.5 -191.5l137 102l76 -106l-139 -103q94 -164 94 -352q0 -152 -55.5 -284t-151.5 -231t-227 -156.5 t-283 -57.5zM852 1255q-119 0 -221.5 -46t-178 -123.5t-118.5 -182t-43 -221.5q0 -78 20.5 -154.5t61.5 -144.5l905 672q-80 98 -190.5 149t-235.5 51zM453 281q78 -78 181 -121t214 -43q119 0 222.5 46t179 126t118.5 185.5t43 221.5q0 131 -59 250z" />
<glyph unicode="&#xd9;" horiz-adv-x="1359" d="M586 133q152 -33 253 31.5t136 222.5l192 905l160 -32l-192 -908q-51 -233 -206 -325.5t-376 -44.5q-221 47 -325.5 194.5t-55.5 380.5l193 905l161 -32l-192 -906q-35 -158 31.5 -258t220.5 -133zM862 1477l-190 295l219 -48l119 -278z" />
<glyph unicode="&#xda;" horiz-adv-x="1359" d="M586 133q152 -33 253 31.5t136 222.5l192 905l160 -32l-192 -908q-51 -233 -206 -325.5t-376 -44.5q-221 47 -325.5 194.5t-55.5 380.5l193 905l161 -32l-192 -906q-35 -158 31.5 -258t220.5 -133zM752 1499l221 207l221 -47l-293 -191z" />
<glyph unicode="&#xdb;" horiz-adv-x="1359" d="M586 133q152 -33 253 31.5t136 222.5l192 905l160 -32l-192 -908q-51 -233 -206 -325.5t-376 -44.5q-221 47 -325.5 194.5t-55.5 380.5l193 905l161 -32l-192 -906q-35 -158 31.5 -258t220.5 -133zM582 1536l239 203l199 -43l137 -283l-137 31l-117 188l-182 -125z" />
<glyph unicode="&#xdc;" horiz-adv-x="1359" d="M586 133q152 -33 253 31.5t136 222.5l192 905l160 -32l-192 -906q-51 -236 -205 -326.5t-377 -43.5t-326.5 192.5t-54.5 380.5l193 905l161 -32l-192 -906q-35 -158 31.5 -258t220.5 -133zM592 1696q10 47 47 70.5t80 13.5q45 -10 69.5 -46t14.5 -83q-10 -45 -47 -68.5 t-82 -13.5q-43 10 -67.5 45t-14.5 82zM1006 1608q10 47 45.5 70.5t81.5 13.5q43 -10 68.5 -46t15.5 -83q-10 -45 -48.5 -69t-81.5 -13q-43 10 -67 46t-14 81z" />
<glyph unicode="&#xdd;" horiz-adv-x="1243" d="M215 1446l2 10l170 -37l252 -667l506 508l178 -39l-2 -11l-633 -620l-129 -608l-160 32l129 611zM666 1481l223 205l219 -48l-293 -190z" />
<glyph unicode="&#xde;" horiz-adv-x="1247" d="M90 117l285 1341l164 -35l-54 -245l353 -76q78 -16 144.5 -51t114.5 -86.5t74.5 -120t26.5 -150.5q0 -92 -30.5 -171t-86 -135t-132.5 -89t-169 -33q-49 0 -110.5 9.5t-125 23.5t-125 28.5t-108.5 24.5l-57 -270zM340 489q43 -10 97.5 -23t110.5 -25.5t111.5 -20.5 t98.5 -8q133 0 203.5 84t70.5 213q0 57 -20.5 101t-54 77t-81 53.5t-98.5 30.5l-321 67z" />
<glyph unicode="&#xdf;" horiz-adv-x="1144" d="M500 125q70 -14 127 -3t101 39.5t71.5 74t40.5 98.5q29 129 -34 219t-194 119l-88 18l29 139l70 -14q119 -25 194.5 21.5t97.5 150.5q23 104 -31.5 178t-158.5 97q-121 25 -202 -49t-120 -255l-188 -884l-160 32l193 906q20 102 62 184t104.5 134t146.5 71.5t193 -2.5 q94 -20 161.5 -65.5t108.5 -105t54.5 -129t-1.5 -138.5q-14 -66 -40.5 -112t-61.5 -75t-75 -44t-77 -21v-2q37 -23 76 -59t66.5 -86t40 -117.5t-6.5 -149.5q-18 -86 -64 -153.5t-112.5 -109.5t-151.5 -55.5t-179 7.5q-41 8 -80 21t-62 26l31 141q23 -14 52.5 -26.5 t66.5 -20.5z" />
<glyph unicode="&#xe0;" horiz-adv-x="997" d="M590 1116l-191 293l219 -47l119 -279zM711 395q-57 51 -143.5 79t-161.5 28q-41 0 -82 -10.5t-73 -32t-51.5 -55t-19.5 -80.5q0 -51 26.5 -89t66.5 -63t88.5 -36t91.5 -11q57 0 112.5 17.5t102.5 45.5zM766 684q0 63 -32 104t-81 65t-106.5 33t-108.5 9q-47 0 -97 -8 t-91 -31l-10 2l32 154q45 18 97.5 25t99.5 7q80 0 162 -20t148.5 -63t108.5 -110t42 -159q0 -43 -10 -90l-144 -678l-147 33l16 84q-51 -29 -110.5 -44t-118.5 -15q-72 0 -142.5 23.5t-128 67.5t-92.5 106.5t-35 139.5q0 80 31 142.5t83 103.5t121 62.5t142 21.5q39 0 87 -8 t95.5 -22.5t90.5 -36t73 -47.5q8 37 16.5 74.5t8.5 74.5z" />
<glyph unicode="&#xe1;" horiz-adv-x="1060" d="M508 1130l221 207l221 -47l-295 -190zM711 395q-57 51 -143.5 79t-161.5 28q-41 0 -82 -10.5t-73 -32t-51.5 -55t-19.5 -80.5q0 -51 26.5 -89t66.5 -63t88.5 -36t91.5 -11q57 0 112.5 17.5t102.5 45.5zM766 684q0 63 -32 104t-81 65t-106.5 33t-108.5 9q-47 0 -97 -8 t-91 -31l-10 2l32 154q45 18 97.5 25t99.5 7q80 0 162 -20t148.5 -63t108.5 -110t42 -159q0 -43 -10 -90l-144 -678l-147 33l16 84q-51 -29 -110.5 -44t-118.5 -15q-72 0 -142.5 23.5t-128 67.5t-92.5 106.5t-35 139.5q0 80 31 142.5t83 103.5t121 62.5t142 21.5q39 0 87 -8 t95.5 -22.5t90.5 -36t73 -47.5q8 37 16.5 74.5t8.5 74.5z" />
<glyph unicode="&#xe2;" horiz-adv-x="1034" d="M342 1167l240 201l198 -41l138 -283l-138 29l-116 191l-183 -127zM711 395q-57 51 -143.5 79t-161.5 28q-41 0 -82 -10.5t-73 -32t-51.5 -55t-19.5 -80.5q0 -51 26.5 -89t66.5 -63t88.5 -36t91.5 -11q57 0 112.5 17.5t102.5 45.5zM766 684q0 63 -32 104t-81 65t-106.5 33 t-108.5 9q-47 0 -97 -8t-91 -31l-10 2l32 154q45 18 97.5 25t99.5 7q80 0 162 -20t148.5 -63t108.5 -110t42 -159q0 -43 -10 -90l-144 -678l-147 33l16 84q-51 -29 -110.5 -44t-118.5 -15q-72 0 -142.5 23.5t-128 67.5t-92.5 106.5t-35 139.5q0 80 31 142.5t83 103.5 t121 62.5t142 21.5q39 0 87 -8t95.5 -22.5t90.5 -36t73 -47.5q8 37 16.5 74.5t8.5 74.5z" />
<glyph unicode="&#xe3;" horiz-adv-x="1060" d="M803 1112q-63 0 -101 25.5t-65 55.5t-49.5 55.5t-55.5 25.5q-31 0 -49 -21.5t-24 -50.5l-117 45q14 66 61.5 110t116.5 44q61 0 97 -25.5t63 -55.5t49.5 -55.5t58.5 -25.5q31 0 49.5 22.5t26.5 49.5l117 -45q-14 -66 -61 -110t-117 -44zM711 395q-57 51 -143.5 79 t-161.5 28q-41 0 -82 -10.5t-73 -32t-51.5 -55t-19.5 -80.5q0 -51 26.5 -89t66.5 -63t88.5 -36t91.5 -11q57 0 112.5 17.5t102.5 45.5zM766 684q0 63 -32 104t-81 65t-106.5 33t-108.5 9q-47 0 -97 -8t-91 -31l-10 2l32 154q45 18 97.5 25t99.5 7q80 0 162 -20t148.5 -63 t108.5 -110t42 -159q0 -43 -10 -90l-144 -678l-147 33l16 84q-51 -29 -110.5 -44t-118.5 -15q-72 0 -142.5 23.5t-128 67.5t-92.5 106.5t-35 139.5q0 80 31 142.5t83 103.5t121 62.5t142 21.5q39 0 87 -8t95.5 -22.5t90.5 -36t73 -47.5q8 37 16.5 74.5t8.5 74.5z" />
<glyph unicode="&#xe4;" horiz-adv-x="1060" d="M346 1303q0 45 30 76.5t75 31.5q47 0 78.5 -30.5t31.5 -77.5q0 -45 -30.5 -75t-75.5 -30t-77 29t-32 76zM758 1212q0 45 29.5 78t76.5 33q45 0 77 -28.5t32 -75.5q0 -45 -29 -77t-76 -32q-43 0 -76.5 27.5t-33.5 74.5zM711 395q-57 51 -143.5 79t-161.5 28 q-41 0 -82 -10.5t-73 -32t-51.5 -55t-19.5 -80.5q0 -51 26.5 -89t66.5 -63t88.5 -36t91.5 -11q57 0 112.5 17.5t102.5 45.5zM766 684q0 63 -32 104t-81 65t-106.5 33t-108.5 9q-47 0 -97 -8t-91 -31l-10 2l32 154q45 18 97.5 25t99.5 7q80 0 162 -20t148.5 -63t108.5 -110 t42 -159q0 -43 -10 -90l-144 -678l-147 33l16 84q-51 -29 -110.5 -44t-118.5 -15q-72 0 -142.5 23.5t-128 67.5t-92.5 106.5t-35 139.5q0 80 31 142.5t83 103.5t121 62.5t142 21.5q39 0 87 -8t95.5 -22.5t90.5 -36t73 -47.5q8 37 16.5 74.5t8.5 74.5z" />
<glyph unicode="&#xe5;" horiz-adv-x="1060" d="M852 1241q0 -37 -15.5 -67.5t-40 -53t-57 -36t-67.5 -13.5q-74 0 -128.5 50t-54.5 126q0 74 51.5 124t125.5 50q37 0 70.5 -14t59 -39t41 -57.5t15.5 -69.5zM670 1155q39 0 63.5 27.5t24.5 64.5q0 41 -26.5 64.5t-67.5 23.5q-39 0 -62.5 -27.5t-23.5 -64.5 q0 -39 27.5 -63.5t64.5 -24.5zM711 395q-57 51 -143.5 79t-161.5 28q-41 0 -82 -10.5t-73 -32t-51.5 -55t-19.5 -80.5q0 -51 26.5 -89t66.5 -63t88.5 -36t91.5 -11q57 0 112.5 17.5t102.5 45.5zM766 684q0 63 -32 104t-81 65t-106.5 33t-108.5 9q-47 0 -97 -8t-91 -31l-10 2 l32 154q45 18 97.5 25t99.5 7q80 0 162 -20t148.5 -63t108.5 -110t42 -159q0 -43 -10 -90l-144 -678l-147 33l16 84q-51 -29 -110.5 -44t-118.5 -15q-72 0 -142.5 23.5t-128 67.5t-92.5 106.5t-35 139.5q0 80 31 142.5t83 103.5t121 62.5t142 21.5q39 0 87 -8t95.5 -22.5 t90.5 -36t73 -47.5q8 37 16.5 74.5t8.5 74.5z" />
<glyph unicode="&#xe6;" horiz-adv-x="1742" d="M1284 -113q-80 0 -156.5 15.5t-146.5 48.5t-125 86t-92 127q-70 -49 -142.5 -78t-160.5 -29q-76 0 -153 21.5t-138 63.5t-100 106.5t-39 150.5q0 80 30.5 141.5t82 102.5t120 62.5t142.5 21.5q39 0 87 -8t96 -22.5t91 -35t74 -47.5q8 35 16 74t8 76q0 61 -31.5 102 t-80 65.5t-104.5 34t-107 9.5q-47 0 -98.5 -9.5t-94.5 -31.5l-10 2l33 156q43 16 94 23t98 7q66 0 135.5 -14t131 -45t107.5 -81t62 -122q59 53 134 83t155 30q104 0 187.5 -37t141.5 -100.5t89 -150.5t31 -187q0 -57 -8.5 -112.5t-24.5 -111.5l-760 162q-2 -12 -3 -24.5 t-1 -24.5q0 -92 39 -158.5t101.5 -109.5t141 -63.5t158.5 -20.5q49 0 101.5 7t97.5 30l10 -2l-30 -152q-43 -18 -92.5 -24.5t-96.5 -6.5zM723 473q-27 25 -63.5 45.5t-77.5 34.5t-82 21.5t-78 7.5q-43 0 -83 -10.5t-73 -32t-52 -56t-19 -82.5q0 -51 25.5 -88t65.5 -61.5 t88 -36.5t91 -12q57 0 112.5 17.5t102.5 47.5zM1487 451q6 37 6 71q0 131 -78 216t-213 85q-55 0 -106.5 -18.5t-92 -51t-71.5 -77.5t-45 -98z" />
<glyph unicode="&#xe7;" horiz-adv-x="987" d="M506 -117l-66 -305l-319 68l24 116l191 -41l39 189zM203 494q0 -90 33.5 -160t91 -118t134.5 -72.5t161 -24.5q45 0 92 7t88 30l10 -2l-33 -156q-41 -16 -86 -22.5t-92 -6.5q-117 0 -218 38t-178 107.5t-121 167t-44 218.5q0 111 40 210t110.5 173.5t168 119t209.5 44.5 q49 0 102.5 -10.5t105.5 -30t99.5 -47t84.5 -62.5l-33 -154l-8 2q-31 33 -71 61t-85 47t-92 29.5t-92 10.5q-86 0 -156 -32t-119 -85t-75.5 -126.5t-26.5 -155.5z" />
<glyph unicode="&#xe8;" horiz-adv-x="1112" d="M651 1124l-190 295l221 -47l119 -278zM868 524q6 37 6 72q0 66 -20 121t-58 95t-92.5 62.5t-121.5 22.5q-55 0 -106.5 -18.5t-92.5 -51t-70.5 -77.5t-44.5 -99zM664 -39q-115 0 -221.5 33t-188.5 97.5t-130 159.5t-48 222q0 109 35.5 212t101.5 184t159 130.5t210 49.5 q106 0 189 -37t141.5 -101.5t89 -152.5t30.5 -189q0 -55 -8 -110.5t-25 -108.5l-759 162q-2 -12 -3 -24.5t-1 -26.5q0 -90 37.5 -156.5t100 -109.5t141.5 -64.5t161 -21.5q47 0 100 7t98 29l11 -2l-33 -151q-43 -18 -92 -24.5t-96 -6.5z" />
<glyph unicode="&#xe9;" horiz-adv-x="1112" d="M588 1139l221 207l221 -48l-295 -190zM868 524q6 37 6 72q0 66 -20 121t-58 95t-92.5 62.5t-121.5 22.5q-55 0 -106.5 -18.5t-92.5 -51t-70.5 -77.5t-44.5 -99zM664 -39q-115 0 -221.5 33t-188.5 97.5t-130 159.5t-48 222q0 109 35.5 212t101.5 184t159 130.5t210 49.5 q106 0 189 -37t141.5 -101.5t89 -152.5t30.5 -189q0 -55 -8 -110.5t-25 -108.5l-759 162q-2 -12 -3 -24.5t-1 -26.5q0 -90 37.5 -156.5t100 -109.5t141.5 -64.5t161 -21.5q47 0 100 7t98 29l11 -2l-33 -151q-43 -18 -92 -24.5t-96 -6.5z" />
<glyph unicode="&#xea;" horiz-adv-x="1103" d="M412 1176l239 202l199 -43l137 -280l-137 28l-117 191l-182 -127zM868 524q6 37 6 72q0 66 -20 121t-58 95t-92.5 62.5t-121.5 22.5q-55 0 -106.5 -18.5t-92.5 -51t-70.5 -77.5t-44.5 -99zM664 -39q-115 0 -221.5 33t-188.5 97.5t-130 159.5t-48 222q0 109 35.5 212 t101.5 184t159 130.5t210 49.5q106 0 189 -37t141.5 -101.5t89 -152.5t30.5 -189q0 -55 -8 -110.5t-25 -108.5l-759 162q-2 -12 -3 -24.5t-1 -26.5q0 -90 37.5 -156.5t100 -109.5t141.5 -64.5t161 -21.5q47 0 100 7t98 29l11 -2l-33 -151q-43 -18 -92 -24.5t-96 -6.5z" />
<glyph unicode="&#xeb;" horiz-adv-x="1112" d="M418 1313q0 45 30.5 76.5t75.5 31.5t77 -30.5t32 -77.5q0 -45 -31 -76t-76 -31t-76.5 31t-31.5 76zM829 1223q0 45 30 77.5t77 32.5q45 0 76.5 -29.5t31.5 -74.5q0 -47 -28.5 -78t-75.5 -31q-43 0 -77 28t-34 75zM868 524q6 37 6 72q0 66 -20 121t-58 95t-92.5 62.5 t-121.5 22.5q-55 0 -106.5 -18.5t-92.5 -51t-70.5 -77.5t-44.5 -99zM664 -39q-117 0 -222.5 33t-187.5 98.5t-130 160.5t-48 222q0 106 35.5 209.5t101.5 184.5t160 130.5t209 49.5q104 0 188 -37t142.5 -100.5t89 -151.5t30.5 -189q0 -55 -8 -111.5t-25 -109.5l-759 162 q-2 -12 -3 -24.5t-1 -26.5q0 -92 38.5 -158.5t101 -109.5t142.5 -63.5t162 -20.5q47 0 98 8t96 28l11 -2l-33 -151q-43 -18 -92 -24.5t-96 -6.5z" />
<glyph unicode="&#xec;" horiz-adv-x="468" d="M313 1116l-190 295l219 -47l119 -279zM39 27l211 993l162 -35l-211 -993z" />
<glyph unicode="&#xed;" horiz-adv-x="479" d="M240 1133l221 204l221 -47l-295 -190zM39 25l211 993l160 -33l-211 -995z" />
<glyph unicode="&#xee;" horiz-adv-x="526" d="M66 1167l239 203l199 -43l135 -283l-135 31l-117 189l-182 -125zM39 25l211 993l162 -35l-213 -993z" />
<glyph unicode="&#xef;" horiz-adv-x="481" d="M39 25l211 993l162 -35l-211 -993zM74 1305q0 45 29.5 76.5t74.5 31.5q47 0 79 -30.5t32 -77.5q0 -45 -32 -76t-77 -31t-75.5 31t-30.5 76zM485 1217q0 45 30 76.5t75 31.5t77.5 -29.5t32.5 -74.5q0 -47 -28.5 -78t-75.5 -31q-45 0 -78 29t-33 76z" />
<glyph unicode="&#xf0;" horiz-adv-x="1196" d="M555 1403l188 -39l43 -94l195 33l23 -121l-164 -27q31 -61 76 -150.5t88 -185.5t73.5 -192.5t30.5 -173.5q0 -102 -41 -189.5t-109.5 -152t-159.5 -101.5t-190 -37q-109 0 -206 37t-171.5 102.5t-118.5 159t-44 203.5q0 102 37.5 194.5t103 163t156 112.5t194.5 42 q49 0 105.5 -12t103.5 -35l-90 188l-297 -49l-21 121l265 43l-72 150zM592 848q-80 0 -146.5 -30t-114.5 -82t-75 -120.5t-27 -146.5t29 -142.5t79 -111.5t117.5 -72.5t143.5 -25.5q70 0 132.5 27.5t110.5 74.5t75.5 109.5t27.5 134.5q0 78 -33.5 163t-76.5 148 q-49 35 -116 54.5t-126 19.5z" />
<glyph unicode="&#xf1;" d="M891 1126q-63 0 -100 25t-64 55.5t-49.5 55t-56.5 24.5q-31 0 -48.5 -20.5t-23.5 -48.5l-119 45q16 66 63.5 108.5t116.5 42.5q61 0 97 -24.5t62 -55t49.5 -55.5t60.5 -25q29 0 47 22.5t26 49.5l119 -47q-16 -66 -64 -109t-116 -43zM217 80l-160 35l213 993l148 -33 l-21 -92q45 35 113 51.5t123 16.5q78 0 148.5 -25t123.5 -70t84 -110.5t31 -147.5q0 -57 -12 -108l-138 -649l-159 34l133 623q10 51 10 92q0 55 -20.5 96t-55.5 67t-80 39t-96 13q-55 0 -120.5 -19.5t-106.5 -58.5z" />
<glyph unicode="&#xf2;" horiz-adv-x="1251" d="M78 496q0 113 39 213t109.5 174.5t168 117.5t211.5 43q113 0 210 -40.5t170 -111.5t115 -168t42 -210q0 -111 -39 -210t-109.5 -174t-167 -118t-209.5 -43t-211 40t-171.5 109.5t-115.5 166t-42 211.5zM610 893q-82 0 -149.5 -32t-116.5 -86t-76.5 -125.5t-27.5 -151.5 q0 -78 28.5 -146.5t77.5 -119t116.5 -80t145.5 -29.5q82 0 150.5 32.5t118 88t77 128t27.5 152.5t-28.5 147.5t-79 117t-118 77t-145.5 27.5zM686 1122l-192 293l221 -47l119 -278z" />
<glyph unicode="&#xf3;" horiz-adv-x="1249" d="M78 498q0 113 39 213t109.5 175t168 118t211.5 43q113 0 210 -41t170 -112t115 -168t42 -210q0 -111 -39 -210t-109.5 -174t-167 -118t-209.5 -43t-211 40t-171.5 109.5t-115.5 166t-42 211.5zM610 895q-82 0 -149.5 -32t-116.5 -86t-76.5 -125.5t-27.5 -151.5 q0 -78 28.5 -146.5t77.5 -119t116.5 -80t145.5 -29.5q82 0 150.5 32.5t118 88t77 128t27.5 152.5t-28.5 147.5t-79 117t-118 77t-145.5 27.5zM623 1137l223 206l219 -47l-293 -190z" />
<glyph unicode="&#xf4;" horiz-adv-x="1224" d="M78 496q0 113 39 213t109.5 174.5t168 117.5t211.5 43q113 0 210 -40.5t170 -111.5t115 -168t42 -210q0 -111 -39 -210t-109.5 -174t-167 -118t-209.5 -43t-211 40t-171.5 109.5t-115.5 166t-42 211.5zM610 893q-82 0 -149.5 -32t-116.5 -86t-76.5 -125.5t-27.5 -151.5 q0 -78 28.5 -146.5t77.5 -119t116.5 -80t145.5 -29.5q82 0 150.5 32.5t118 88t77 128t27.5 152.5t-28.5 147.5t-79 117t-118 77t-145.5 27.5zM451 1171l239 203l199 -43l137 -282l-137 28l-117 191l-180 -127z" />
<glyph unicode="&#xf5;" horiz-adv-x="1249" d="M907 1116q-61 0 -99 25.5t-64.5 55.5t-50 55.5t-54.5 25.5t-49.5 -21.5t-24.5 -50.5l-119 45q16 66 62.5 110t116.5 44q61 0 97 -25.5t62.5 -55.5t50 -55.5t60.5 -25.5q29 0 47.5 22.5t26.5 49.5l118 -45q-16 -66 -63 -110t-117 -44zM78 498q0 113 39 213t109.5 175 t168 118t211.5 43q111 0 209 -40t171 -111t115 -168t42 -210q0 -111 -39 -210t-109.5 -174t-167 -119t-209.5 -44t-211 40t-171.5 109.5t-115.5 166t-42 211.5zM610 895q-82 0 -149.5 -32t-116.5 -86t-76.5 -125.5t-27.5 -151.5q0 -78 28.5 -145.5t77.5 -119t116.5 -81 t145.5 -29.5q82 0 150.5 32.5t118 88t77 128t27.5 152.5t-28.5 147.5t-78 117t-117 77t-147.5 27.5z" />
<glyph unicode="&#xf6;" horiz-adv-x="1249" d="M78 496q0 113 39 213t109.5 174.5t168 117.5t211.5 43q111 0 209 -39.5t171 -110.5t115 -168t42 -210q0 -111 -39 -210t-109.5 -174t-167 -119t-209.5 -44t-211 40t-171.5 109.5t-115.5 166t-42 211.5zM610 893q-82 0 -149.5 -32t-116.5 -86t-76.5 -125.5t-27.5 -151.5 q0 -78 28.5 -145.5t77.5 -119t116.5 -81t145.5 -29.5q82 0 150.5 32.5t118 88t77 128t27.5 152.5t-28.5 147.5t-78 117t-117 77t-147.5 27.5zM457 1309q0 43 30.5 75.5t75.5 32.5t77 -29.5t32 -76.5q0 -45 -30 -77t-77 -32q-45 0 -76.5 31t-31.5 76zM870 1221q0 45 30 76.5 t75 31.5q47 0 78.5 -30.5t31.5 -77.5q0 -45 -31.5 -76t-76.5 -31t-76 31t-31 76z" />
<glyph unicode="&#xf7;" horiz-adv-x="1165" d="M451 131q0 55 35.5 90t88.5 35q51 0 88 -35t37 -90t-36.5 -90t-88.5 -35q-53 0 -88.5 35t-35.5 90zM451 926q0 55 35.5 90t88.5 35q51 0 88 -35t37 -90t-36.5 -90t-88.5 -35q-53 0 -88.5 35t-35.5 90zM1034 602v-147h-923v147h923z" />
<glyph unicode="&#xf8;" horiz-adv-x="1251" d="M78 494q0 113 39 213t109.5 174.5t168 118.5t213.5 44q113 0 216.5 -43t181.5 -127l86 68l69 -92l-88 -70q72 -125 72 -268q0 -111 -39 -209t-108.5 -172t-166 -117t-208.5 -43q-106 0 -210 38t-182 114l-90 -70l-71 94l88 68q-41 61 -60.5 133t-19.5 146zM612 893 q-82 0 -150.5 -33t-117.5 -87t-76.5 -126t-27.5 -151q0 -94 45 -181l600 465q-53 55 -125 84t-148 29zM610 123q82 0 150.5 32.5t118 88t77 128t27.5 152.5q0 88 -33 160l-594 -463q109 -98 254 -98z" />
<glyph unicode="&#xf9;" d="M657 1112l-190 295l221 -47l119 -279zM907 946l160 -35l-213 -993l-147 31l20 92q-51 -35 -113.5 -50.5t-121.5 -15.5q-76 0 -147 22.5t-126 65.5t-88 106.5t-33 143.5q0 27 4 52.5t9 50.5l141 669l160 -34l-138 -648q-10 -41 -10 -77q0 -53 22.5 -92t59.5 -64t83 -37 t95 -12q57 0 120 19.5t106 58.5z" />
<glyph unicode="&#xfa;" d="M567 1130l224 207l219 -47l-293 -190zM907 946l160 -35l-213 -993l-147 31l20 92q-51 -35 -113.5 -50.5t-121.5 -15.5q-76 0 -147 22.5t-126 65.5t-88 106.5t-33 143.5q0 27 4 52.5t9 50.5l141 669l160 -34l-138 -648q-10 -41 -10 -77q0 -53 22.5 -92t59.5 -64t83 -37 t95 -12q57 0 120 19.5t106 58.5z" />
<glyph unicode="&#xfb;" d="M399 1165l240 203l199 -41l137 -283l-137 29l-117 191l-180 -127zM907 946l160 -35l-213 -993l-147 31l20 92q-51 -35 -113.5 -50.5t-121.5 -15.5q-76 0 -147 22.5t-126 65.5t-88 106.5t-33 143.5q0 27 4 52.5t9 50.5l141 669l160 -34l-138 -648q-10 -41 -10 -77 q0 -53 22.5 -92t59.5 -64t83 -37t95 -12q57 0 120 19.5t106 58.5z" />
<glyph unicode="&#xfc;" d="M414 1300q0 43 30.5 76t75.5 33t77 -30.5t32 -78.5q0 -45 -30 -75.5t-77 -30.5q-45 0 -76.5 29.5t-31.5 76.5zM827 1210q0 47 29 79t76 32q45 0 76.5 -29.5t31.5 -77.5q0 -45 -29.5 -76.5t-76.5 -31.5q-45 0 -76 29.5t-31 74.5zM907 946l160 -35l-213 -993l-147 31l20 92 q-51 -35 -113.5 -50.5t-121.5 -15.5q-76 0 -147 22.5t-126 65.5t-88 106.5t-33 143.5q0 27 4 52.5t9 50.5l141 669l160 -34l-138 -648q-10 -41 -10 -77q0 -53 22.5 -92t59.5 -64t83 -37t95 -12q57 0 120 19.5t106 58.5z" />
<glyph unicode="&#xfd;" horiz-adv-x="1120" d="M543 1126l221 207l221 -47l-295 -190zM135 -283l215 299l-213 1086l172 -37l164 -877l494 738l174 -37l-838 -1206z" />
<glyph unicode="&#xfe;" horiz-adv-x="1267" d="M1163 526q0 -113 -40 -213t-110.5 -175t-166.5 -119t-211 -44q-47 0 -106.5 12.5t-116 37t-105.5 58.5t-74 77l-86 -408l-159 33l354 1673l160 -35l-90 -426q20 14 48.5 24.5t58.5 16.5t59.5 9.5t54.5 3.5q109 0 205 -41t168.5 -112t114.5 -166t42 -206zM623 119 q86 0 154.5 34.5t117.5 93t75.5 134.5t26.5 156q0 84 -29.5 153.5t-80.5 118.5t-123 76.5t-154 27.5q-55 0 -120.5 -17t-110.5 -54l-113 -525q25 -45 65 -81.5t88 -62.5t100.5 -40t103.5 -14z" />
<glyph unicode="&#xff;" horiz-adv-x="1120" d="M385 1298q0 43 30.5 76t76.5 33q45 0 76.5 -32t31.5 -77t-31.5 -75.5t-76.5 -30.5t-76 30.5t-31 75.5zM797 1206q0 47 29.5 80t76.5 33q45 0 77 -29.5t32 -75.5q0 -47 -30 -78.5t-77 -31.5q-43 0 -75.5 29.5t-32.5 72.5zM135 -283l215 299l-213 1086l172 -37l164 -877 l494 738l174 -37l-838 -1206z" />
<glyph unicode="&#x152;" horiz-adv-x="2394" d="M2396 1135l-31 -148l-704 150l-88 -408l665 -141l-30 -150l-666 142l-104 -488l714 -153l-30 -148l-877 186l45 205q-90 -72 -197.5 -108.5t-222.5 -36.5q-152 0 -283.5 54t-231 150.5t-157 227.5t-57.5 283q0 150 54.5 282.5t150.5 233t226 158t284 57.5 q100 0 194.5 -24.5t176.5 -73t148.5 -118t111.5 -157.5l45 209zM305 754q0 -117 43 -219.5t118 -179t177 -121t219 -44.5q119 0 221.5 46.5t178 126t118.5 184t43 221.5t-43 219.5t-118.5 178t-177 119.5t-218.5 44q-119 0 -221 -46t-178 -125t-119 -183t-43 -221z" />
<glyph unicode="&#x153;" horiz-adv-x="2019" d="M1571 -37q-80 0 -156 16.5t-143.5 47t-122.5 77t-94 107.5q-68 -109 -180.5 -174.5t-253.5 -65.5q-113 0 -212.5 39t-173 108.5t-116.5 165t-43 210.5q0 113 39 212t108.5 174.5t166.5 119.5t212 44q147 0 268 -67.5t193 -183.5q66 113 174.5 185.5t249.5 72.5 q104 0 188 -37t142.5 -100.5t89 -151.5t30.5 -189q0 -53 -7 -110t-23 -111l-762 162q-2 -12 -3 -24.5t-1 -24.5q0 -92 39 -158.5t102.5 -110.5t143 -64.5t159.5 -20.5q49 0 100.5 8t96.5 28l10 -2l-33 -151q-43 -18 -92 -24.5t-96 -6.5zM608 893q-82 0 -149.5 -32 t-116.5 -86t-75.5 -125.5t-26.5 -149.5t28.5 -146.5t77.5 -120t116.5 -81t145.5 -29.5q82 0 150.5 32.5t118 88t77 128t27.5 152.5t-28.5 147.5t-79 117t-118 77t-147.5 27.5zM1774 526q6 37 6 74q0 131 -79 215t-214 84q-55 0 -105.5 -18.5t-91.5 -51t-70.5 -77.5 t-43.5 -99z" />
<glyph unicode="&#x178;" horiz-adv-x="1245" d="M215 1442l2 10l170 -37l252 -667l506 507l178 -38l-2 -11l-633 -620l-129 -609l-160 33l129 611zM508 1645q0 45 29.5 78.5t76.5 33.5q45 0 77 -29.5t32 -76.5q0 -45 -28.5 -77t-76.5 -32q-45 0 -77.5 29t-32.5 74zM922 1561q0 45 29.5 76.5t76.5 31.5q45 0 77 -31.5 t32 -76.5t-32 -76t-77 -31t-75.5 30t-30.5 77z" />
<glyph unicode="&#x2c6;" horiz-adv-x="870" d="M123 1188l239 203l197 -43l137 -283l-135 31l-117 188l-182 -125z" />
<glyph unicode="&#x2dc;" horiz-adv-x="905" d="M420 1221q-16 23 -34.5 43t-47.5 26q-27 4 -52.5 -11t-35.5 -58l-117 45q18 84 82 124t135 25q51 -10 85 -38.5t50 -55.5q16 -20 31.5 -36.5t50.5 -24.5q31 -6 54.5 14t33.5 55l117 -45q-10 -43 -31.5 -73.5t-50 -50t-63.5 -27t-72 1.5q-41 10 -76.5 31.5t-58.5 54.5z " />
<glyph unicode="&#x2000;" horiz-adv-x="910" />
<glyph unicode="&#x2001;" horiz-adv-x="1821" />
<glyph unicode="&#x2002;" horiz-adv-x="910" />
<glyph unicode="&#x2003;" horiz-adv-x="1821" />
<glyph unicode="&#x2004;" horiz-adv-x="607" />
<glyph unicode="&#x2005;" horiz-adv-x="455" />
<glyph unicode="&#x2006;" horiz-adv-x="303" />
<glyph unicode="&#x2007;" horiz-adv-x="303" />
<glyph unicode="&#x2008;" horiz-adv-x="227" />
<glyph unicode="&#x2009;" horiz-adv-x="364" />
<glyph unicode="&#x200a;" horiz-adv-x="101" />
<glyph unicode="&#x2010;" horiz-adv-x="833" d="M674 602v-147h-537v147h537z" />
<glyph unicode="&#x2011;" horiz-adv-x="833" d="M674 602v-147h-537v147h537z" />
<glyph unicode="&#x2012;" horiz-adv-x="833" d="M674 602v-147h-537v147h537z" />
<glyph unicode="&#x2013;" horiz-adv-x="1296" d="M1137 602v-147h-1000v147h1000z" />
<glyph unicode="&#x2014;" horiz-adv-x="1687" d="M1528 602v-147h-1391v147h1391z" />
<glyph unicode="&#x2018;" horiz-adv-x="479" d="M350 918l-188 38l276 402l101 -21z" />
<glyph unicode="&#x2019;" horiz-adv-x="479" d="M371 1376l188 -39l-276 -401l-101 20z" />
<glyph unicode="&#x201a;" horiz-adv-x="464" d="M78 248h192l-188 -451h-102z" />
<glyph unicode="&#x201c;" horiz-adv-x="804" d="M375 922h-193l189 450h102zM733 922h-192l188 450h102z" />
<glyph unicode="&#x201d;" horiz-adv-x="794" d="M666 1372h192l-188 -450h-103zM307 1372h193l-189 -450h-102z" />
<glyph unicode="&#x201e;" horiz-adv-x="823" d="M436 248h193l-189 -451h-102zM78 248h192l-188 -451h-102z" />
<glyph unicode="&#x2022;" horiz-adv-x="872" d="M715 588q0 -59 -21.5 -110.5t-58.5 -88.5t-88 -58.5t-111 -21.5q-59 0 -110.5 21.5t-89 58.5t-59 88t-21.5 111q0 57 21.5 108.5t59 89t89 59t110.5 21.5t110.5 -21.5t88.5 -59t58.5 -89t21.5 -108.5z" />
<glyph unicode="&#x2026;" horiz-adv-x="1730" d="M23 96q0 55 35.5 90t88.5 35q51 0 88 -34.5t37 -90.5q0 -55 -36.5 -90t-88.5 -35q-53 0 -88.5 35t-35.5 90zM645 96q0 55 36 90t89 35q51 0 88 -34.5t37 -90.5q0 -55 -37 -90t-88 -35q-53 0 -89 35t-36 90zM1270 96q0 55 35.5 90t89.5 35q51 0 88 -34.5t37 -90.5 q0 -55 -37 -90t-88 -35q-53 0 -89 35t-36 90z" />
<glyph unicode="&#x202f;" horiz-adv-x="364" />
<glyph unicode="&#x2030;" horiz-adv-x="2523" d="M475 772q43 0 76 19.5t53.5 53.5t30.5 79t10 96t-10 96t-31.5 79t-53.5 54.5t-75 20.5t-75.5 -20.5t-54 -54.5t-33 -79t-11.5 -96t10.5 -96t32 -79t54 -53.5t77.5 -19.5zM475 653q-72 0 -128 29t-95 78t-60.5 115.5t-21.5 144.5q0 80 21.5 147.5t60.5 116.5t95 77t128 28 q70 0 126 -28t95 -77t60.5 -116.5t21.5 -147.5q0 -78 -21.5 -144.5t-60.5 -115.5t-95 -78t-126 -29zM1358 100q43 0 75.5 19.5t53 53.5t31 79t10.5 96t-10.5 96t-32 79t-53 54.5t-74.5 20.5t-76 -20.5t-54.5 -54.5t-32.5 -79t-11 -96t10 -96t31.5 -79t54.5 -53.5t78 -19.5z M1358 -18q-72 0 -128 28.5t-95 77.5t-60.5 115.5t-21.5 144.5q0 80 21.5 147.5t60.5 117t95 77t128 27.5q70 0 126 -27.5t95 -77t60.5 -117t21.5 -147.5q0 -78 -21.5 -144.5t-60.5 -115.5t-95 -77.5t-126 -28.5zM1407 1362l-836 -1362h-141v10l836 1362h141v-10zM2087 100 q43 0 75.5 19.5t53 53.5t31 79t10.5 96t-10.5 96t-32 79t-53 54.5t-74.5 20.5t-76 -20.5t-54.5 -54.5t-32.5 -79t-11 -96t10 -96t31.5 -79t54.5 -53.5t78 -19.5zM2087 -18q-72 0 -128 28.5t-95 77.5t-60.5 115.5t-21.5 144.5q0 80 21.5 147.5t60.5 117t95 77t128 27.5 q70 0 126 -27.5t95 -77t60.5 -117t21.5 -147.5q0 -78 -21.5 -144.5t-60.5 -115.5t-95 -77.5t-126 -28.5z" />
<glyph unicode="&#x2039;" horiz-adv-x="698" d="M512 125v-10h-154l-264 397l277 406h151v-11l-270 -395z" />
<glyph unicode="&#x203a;" horiz-adv-x="710" d="M428 512l-270 395v11h151l277 -406l-264 -397h-154v10z" />
<glyph unicode="&#x205f;" horiz-adv-x="455" />
<glyph unicode="&#x20ac;" horiz-adv-x="1378" d="M137 887h156q27 113 81 209t130 165.5t171 108.5t204 39q82 0 161.5 -21.5t151.5 -70.5v-160h-8q-41 37 -120 67.5t-183 30.5q-80 0 -147.5 -27.5t-121 -76.5t-92.5 -116.5t-61 -147.5h538v-133h-561q-2 -16 -2 -34v-34v-37.5t2 -36.5h561v-133h-536q45 -160 154.5 -257 t265.5 -97q111 0 187.5 32.5t123.5 75.5h8v-159q-47 -35 -126 -69t-193 -34q-106 0 -200.5 37t-171.5 103.5t-132 160t-82 207.5h-158v133h135q-2 18 -2 37v37v33.5t2 34.5h-135v133z" />
<glyph unicode="&#x2122;" horiz-adv-x="1988" d="M561 541v719h-282v112h692v-112h-285v-719h-125zM1737 541v540l4 131h-2l-49 -120l-150 -336h-123l-153 336l-47 120h-3l3 -131v-540h-125v831h163l177 -385l49 -100l39 102l176 383h166v-831h-125z" />
<glyph unicode="&#x2190;" horiz-adv-x="1484" d="M385 455l356 -346v-11h-180l-430 430l430 430h180v-10l-356 -346h989v-147h-989z" />
<glyph unicode="&#x2192;" horiz-adv-x="1484" d="M131 455v147h989l-356 346v10h180l430 -430l-430 -430h-180v11l356 346h-989z" />
<glyph unicode="&#x25fc;" horiz-adv-x="1105" d="M0 1106h1106v-1106h-1106v1106z" />
<glyph horiz-adv-x="1153" d="M401 1165l240 203l199 -41l137 -283l-137 29l-117 191l-180 -127zM909 946l160 -35l-213 -993l-803 170l211 993l160 -34l-182 -848l487 -103z" />
<glyph horiz-adv-x="1153" d="M659 1112l-190 295l221 -47l119 -279zM909 946l160 -35l-213 -993l-803 170l211 993l160 -34l-182 -848l487 -103z" />
<glyph horiz-adv-x="1153" d="M416 1300q0 43 30.5 76t75.5 33t77 -30.5t32 -78.5q0 -45 -30 -75.5t-77 -30.5q-45 0 -76.5 29.5t-31.5 76.5zM829 1210q0 47 29 79t76 32q45 0 76.5 -29.5t31.5 -77.5q0 -45 -29.5 -76.5t-76.5 -31.5q-45 0 -76 29.5t-31 74.5zM909 946l160 -35l-213 -993l-803 170 l211 993l160 -34l-182 -848l487 -103z" />
<glyph horiz-adv-x="1153" d="M569 1130l224 207l219 -47l-293 -190zM909 946l160 -35l-213 -993l-803 170l211 993l160 -34l-182 -848l487 -103z" />
<glyph d="M891 1126q-63 0 -100 25t-64 55.5t-49.5 55t-56.5 24.5q-31 0 -48.5 -20.5t-23.5 -48.5l-119 45q16 66 63.5 108.5t116.5 42.5q61 0 97 -24.5t62 -55t49.5 -55.5t60.5 -25q29 0 47 22.5t26 49.5l119 -47q-16 -66 -64 -109t-116 -43zM217 80l-160 35l213 993l801 -170 l-211 -993l-158 32l181 850l-486 103z" />
<glyph horiz-adv-x="856" d="M709 727v-147h-537v147h537z" />
<glyph horiz-adv-x="1318" d="M1171 727v-147h-999v147h999z" />
<glyph horiz-adv-x="1710" d="M1563 727v-147h-1391v147h1391z" />
<glyph horiz-adv-x="856" d="M709 727v-147h-537v147h537z" />
<glyph horiz-adv-x="1101" d="M553 266v-10h-154l-264 397l277 406h151v-10l-270 -396zM930 266v-10h-154l-264 397l276 406h152v-10l-270 -396z" />
<glyph horiz-adv-x="1114" d="M840 653l-271 396v10h152l276 -406l-264 -397h-153v10zM463 653l-270 396v10h151l277 -406l-265 -397h-153v10z" />
<glyph horiz-adv-x="724" d="M553 266v-10h-154l-264 397l277 406h151v-10l-270 -396z" />
<glyph horiz-adv-x="737" d="M463 653l-270 396v10h151l277 -406l-265 -397h-153v10z" />
<glyph horiz-adv-x="684" d="M451 -211l-175 35q-55 94 -95 199.5t-60.5 218t-20.5 231.5t27 242q25 119 75 230.5t118.5 211.5t154.5 185t184 151l170 -37l-2 -10q-98 -61 -185 -144t-158.5 -181.5t-123 -209t-75.5 -229.5q-27 -123 -24 -244t28.5 -234.5t68.5 -217t95 -189.5z" />
<glyph horiz-adv-x="675" d="M-86 -100q82 57 163 134t149.5 170t120.5 201.5t79 231.5q25 119 22.5 240.5t-27 240.5t-70.5 230.5t-109 207.5l2 11l170 -37q63 -98 106 -211t65.5 -231.5t22.5 -241.5t-24 -242q-53 -246 -186.5 -434t-313.5 -317l-172 36z" />
<glyph horiz-adv-x="686" d="M436 -201l-377 80l357 1671l377 -80l-31 -137l-225 47l-297 -1394l225 -49z" />
<glyph horiz-adv-x="686" d="M-35 16l225 -47l297 1395l-225 49l29 137l377 -80l-357 -1671l-377 80z" />
<glyph horiz-adv-x="612" d="M266 688l2 -4q43 -33 57.5 -94.5t-10.5 -181.5l-59 -273q-10 -51 -12 -87t11 -60.5t43 -41t81 -30.5l-25 -119l-30 6q-80 18 -130.5 48t-76 70t-28.5 91t9 113l84 401q14 63 2 101.5t-57 68.5l8 45q53 8 81 39t40 94l86 400q12 61 36.5 107t64.5 73t97.5 33t139.5 -12 l31 -7l-27 -118q-53 8 -87 5t-55.5 -20.5t-34.5 -50.5t-24 -84l-59 -276q-23 -111 -62.5 -166.5t-91.5 -69.5h-4z" />
<glyph horiz-adv-x="616" d="M231 424q27 121 65 172t91 63h2l-2 5q-41 33 -54.5 99t9.5 177l59 277q10 51 12.5 86.5t-11 60.5t-43 41t-80.5 31l24 118l31 -6q80 -18 130 -48t75.5 -69.5t28.5 -91t-9 -112.5l-84 -402q-14 -63 -2 -101t57 -69l-8 -45q-53 -8 -80.5 -38.5t-40.5 -94.5l-86 -399 q-12 -61 -36.5 -107.5t-64.5 -73t-97.5 -32.5t-139.5 12l-30 6l26 119q53 -8 87 -5t55.5 20.5t35 50t23.5 84.5l57 272v0z" />
<glyph horiz-adv-x="575" d="M57 -135l357 1673l149 -33l-356 -1673z" />
<glyph horiz-adv-x="1222" d="M729 666l358 -361l-104 -104l-358 360l-361 -362l-104 104l360 363l-358 360l104 104l359 -360l358 358l104 -104z" />
<glyph horiz-adv-x="1103" d="M492 737v404h153v-404h387v-147h-387v-404h-153v404h-386v147h386z" />
<glyph horiz-adv-x="1120" d="M946 317v-161h-10l-850 503v9l850 503h10v-161l-584 -346z" />
<glyph horiz-adv-x="1298" d="M1112 924v-148h-899v148h899zM1112 551v-148h-899v148h899z" />
<glyph horiz-adv-x="1103" d="M776 664l-583 346v161h10l850 -503v-9l-850 -503h-10v161z" />
<glyph horiz-adv-x="1226" d="M522 383v330h-375v143h375v330h150v-330h375v-143h-375v-330h-150zM1047 283v-142h-897v142h897z" />
<glyph horiz-adv-x="1212" d="M887 774h-709v154h873v-541h-164v387z" />
<glyph horiz-adv-x="1161" d="M475 266q0 55 36 90t89 35q51 0 88 -34.5t37 -90.5q0 -55 -37 -90t-88 -35q-53 0 -89 35t-36 90zM475 1061q0 55 36 90t89 35q51 0 88 -35t37 -90t-37 -90t-88 -35q-53 0 -89 35t-36 90zM1059 737v-147h-924v147h924z" />
<glyph horiz-adv-x="1052" d="M113 145q94 74 148 116t84 64.5t42 32t21 15.5q156 115 231.5 186.5t75.5 142.5q0 39 -17.5 74t-48.5 60.5t-75 41t-97 15.5q-109 0 -187.5 -41t-137.5 -92h-11v166q59 47 146.5 82.5t204.5 35.5q80 0 150.5 -24.5t122.5 -69.5t82 -105.5t30 -129.5q0 -78 -36 -140.5 t-96.5 -121t-138.5 -114.5t-162 -122q-18 -14 -50 -35.5t-56 -34.5h534v-147h-759v145v0z" />
<glyph horiz-adv-x="1318" d="M100 508q0 115 42 213t115 170t172 112.5t214 40.5q117 0 217.5 -40.5t173 -112.5t114.5 -170t42 -213t-42 -213t-114.5 -170t-173 -113t-217.5 -41q-115 0 -214 41t-172 113t-115 170t-42 213zM264 508q0 -84 29 -154.5t80 -123t120.5 -82t149.5 -29.5t150.5 30.5 t122 83t81 124t29.5 151.5t-29.5 151.5t-81 124t-122 83t-150.5 30.5t-149.5 -30.5t-120.5 -83t-80 -124t-29 -151.5z" />
<glyph d="M555 535q86 -6 161 -40t132 -90.5t90 -133t33 -167.5q0 -102 -36 -188t-101.5 -148.5t-155.5 -98.5t-201 -36q-117 0 -210 33t-140 68v164h10q53 -43 143.5 -78t182.5 -35q84 0 148.5 25.5t108.5 68.5t66.5 100.5t22.5 120.5q0 66 -24.5 121t-69.5 96t-108.5 63.5 t-141.5 22.5q-45 0 -96.5 -13t-77.5 -30h-10v93l428 415h-582v148h770v-148z" />
<glyph horiz-adv-x="1110" d="M557 1016h201v-869h192v-147h-192v-338h-162v338h-616v147zM152 147h444v676z" />
<glyph horiz-adv-x="1177" d="M141 -82q25 -23 63 -47.5t85 -44t99 -31.5t104 -12q76 0 141 21.5t114.5 63.5t77 104.5t27.5 144.5q0 147 -89 235t-239 88q-92 0 -162.5 -42t-99.5 -97h-131v715h762v-148h-612v-376q29 33 98.5 67.5t167.5 34.5q102 0 188 -35t147.5 -97.5t96.5 -150.5t35 -192 q0 -111 -39 -201t-108.5 -153.5t-164 -98.5t-204.5 -35q-57 0 -111.5 10.5t-102.5 27t-87 37t-66 40.5v172h10z" />
<glyph horiz-adv-x="1183" d="M473 918q31 6 71 10t77 4q92 0 177 -34t150.5 -96.5t104.5 -149.5t39 -191q0 -109 -39 -199t-107.5 -154.5t-161 -100.5t-196.5 -36t-196.5 36t-161 100.5t-107.5 154.5t-39 199q0 82 27.5 157.5t72.5 141.5l412 612h178v-10zM588 791q-74 0 -137.5 -26t-108.5 -70 t-70.5 -104.5t-25.5 -129.5q0 -70 25.5 -131.5t70.5 -106.5t108.5 -71.5t137.5 -26.5t137 26.5t108.5 71.5t71 106.5t25.5 131.5q0 74 -23.5 134t-67.5 103t-107.5 68t-143.5 25z" />
<glyph horiz-adv-x="1003" d="M784 868h-665v148h915l-649 -1354h-178z" />
<glyph horiz-adv-x="1292" d="M649 1253q-66 0 -116 -19.5t-83.5 -50t-51 -70.5t-17.5 -79q0 -47 17.5 -89t51 -74.5t84 -51t115.5 -18.5q66 0 116 18.5t84 51t51.5 74.5t17.5 89q0 39 -17.5 79t-51.5 70.5t-84 50t-116 19.5zM649 664q-70 0 -128 -20.5t-101 -57.5t-66.5 -86t-23.5 -105 q0 -61 23.5 -111.5t65.5 -87t100.5 -57t129.5 -20.5q70 0 129.5 20.5t100.5 57t64.5 87t23.5 111.5q0 55 -22.5 104.5t-63.5 86.5t-99.5 57.5t-132.5 20.5zM649 1401q100 0 180 -32t134.5 -84t83 -118.5t28.5 -134.5q0 -55 -14 -102t-39 -86t-55.5 -65.5t-63.5 -41.5 q41 -20 81 -54t70.5 -78t50 -100t19.5 -120q0 -84 -33.5 -159.5t-96 -132t-150.5 -89.5t-195 -33q-106 0 -194 33t-150.5 89.5t-97.5 132t-35 159.5q0 63 20.5 119.5t52 101.5t71.5 79t79 52q-33 16 -63.5 45t-55 67t-39 84t-14.5 99q0 68 29 134.5t83 118.5t133 84t181 32z " />
<glyph horiz-adv-x="1163" d="M387 -328l289 426q-31 -6 -71 -10t-77 -4q-92 0 -177 34t-150.5 96t-104.5 149.5t-39 191.5q0 109 39 199t107.5 154.5t161 100t196.5 35.5t196.5 -35.5t161 -100t107.5 -154.5t39 -199q0 -82 -27.5 -157.5t-72.5 -141.5l-400 -594h-178v10zM561 225q74 0 137.5 25.5 t108.5 70t70.5 104.5t25.5 130t-25.5 131.5t-70.5 106.5t-108.5 71.5t-137.5 26.5t-137.5 -26.5t-108.5 -71.5t-70.5 -106.5t-25.5 -131.5q0 -74 23.5 -134.5t67.5 -103.5t107.5 -67.5t143.5 -24.5z" />
<glyph d="M909 948l158 -33l-211 -993l-803 170l211 993l160 -34l-182 -848l487 -103z" />
<glyph horiz-adv-x="1167" d="M459 -12q-133 27 -214 103.5t-121 186t-41 240.5t28 270q31 141 88 262t140 204t188.5 120t230.5 10t205.5 -101.5t121.5 -184t44.5 -242.5t-27.5 -276q-29 -137 -83 -258t-134 -204t-186.5 -121t-239.5 -9zM725 1237q-86 18 -161 -15.5t-133 -103t-99 -164t-64 -198.5 q-20 -96 -22 -196.5t22.5 -188.5t77.5 -151.5t146 -82.5q92 -18 166.5 17.5t131 105.5t95.5 163t59 189q23 104 24 208t-23.5 190t-78 147.5t-141.5 79.5z" />
<glyph horiz-adv-x="1167" d="M920 72l-31 -144l-823 174l26 123l623 463q86 66 139 121t70 127q25 117 -40 201t-200 112q-61 12 -116.5 9t-103.5 -16t-88 -33.5t-73 -41.5l-10 2l35 164q31 18 74.5 35.5t97 27t112 10.5t117.5 -11q100 -23 175 -70t121 -111.5t61.5 -143.5t-3.5 -161 q-12 -53 -38.5 -99t-64.5 -87t-83 -78t-94 -72l-500 -370z" />
<glyph horiz-adv-x="1167" d="M373 862l504 318l-568 120l31 144l752 -160l-31 -143l-424 -269q84 -23 154.5 -70.5t116.5 -115.5t63.5 -151.5t-0.5 -174.5q-20 -98 -73.5 -176t-130.5 -126t-173 -63t-203 7q-117 25 -201 75t-120 95l32 160l11 -2q43 -53 123.5 -105.5t171.5 -70.5q82 -18 150.5 -7 t120.5 44.5t86 85t48 112.5q12 63 0 122.5t-47 109t-93.5 85t-133.5 52.5q-43 10 -97.5 7t-83.5 -13l-8 2z" />
<glyph horiz-adv-x="1167" d="M803 1343l217 -45l-197 -917l201 -43l-31 -145l-200 43l-60 -281l-158 35l60 280l-602 127l30 146zM231 506l435 -92l157 741z" />
<glyph horiz-adv-x="1167" d="M117 356q18 -29 51 -59.5t74 -59t90 -52t98 -33.5q74 -16 143.5 -9t126 37.5t96.5 87t56 135.5q31 143 -38 249t-214 136q-92 18 -169 -8t-118 -73l-127 26l152 715l745 -158l-30 -143l-600 127l-82 -385q35 27 110.5 46t171.5 -1q100 -23 177 -74t124 -126t62.5 -168 t-4.5 -195q-23 -109 -80.5 -189t-138 -127t-180 -61t-207.5 8q-115 25 -203 80t-133 108l36 168z" />
<glyph horiz-adv-x="1167" d="M555 936q33 0 73 -4t74 -12q90 -18 166 -69.5t127.5 -126.5t71.5 -168t-2 -196q-23 -106 -80 -186t-137 -129t-177.5 -65.5t-199.5 6.5t-185 77t-136.5 130.5t-73 173t3.5 202.5q16 80 59 149.5t101 123.5l530 514l174 -37l-2 -10zM641 788q-74 14 -140.5 3t-119.5 -44.5 t-91 -88t-52 -121.5q-14 -68 -2 -133.5t46.5 -120t91 -93t128.5 -53.5q74 -16 140.5 -3t120.5 48t92 90.5t52 122.5q14 70 4 134.5t-43.5 116.5t-91 89t-135.5 53z" />
<glyph horiz-adv-x="1167" d="M934 1169l-649 140l30 143l895 -190l-929 -1205l-175 37z" />
<glyph horiz-adv-x="1167" d="M727 1241q-66 14 -118 5t-92 -32.5t-65.5 -58.5t-33.5 -74q-10 -45 -1 -90t34.5 -84t70.5 -67.5t111 -40.5q63 -14 116.5 -6t93.5 32.5t64.5 61.5t34.5 84q8 39 0 81t-34.5 79.5t-72 66.5t-108.5 43zM604 664q-68 14 -129 6t-110.5 -35t-83 -70t-45.5 -98 q-12 -59 -1 -113.5t44.5 -99.5t87 -77t122.5 -46q70 -14 131.5 -7t110.5 34.5t82 72.5t45 105q12 55 0 107.5t-44 96.5t-85 76t-125 48zM758 1384q98 -20 168.5 -68t113.5 -109.5t57.5 -132t0.5 -138.5q-12 -53 -37 -97t-56.5 -76t-67.5 -52.5t-71 -26.5q37 -29 69 -70 t53.5 -92t28.5 -108.5t-7 -120.5q-18 -84 -67.5 -149.5t-122 -107.5t-165 -56.5t-196.5 8.5q-104 20 -183 71.5t-128.5 119t-68 148.5t0.5 165q12 61 44 112t73 88t86 61.5t88 34.5q-29 23 -53.5 58t-40 77t-19.5 90t6 99q14 68 55 127t105.5 98t149 53t184.5 -6z" />
<glyph horiz-adv-x="1167" d="M270 63l387 373q-33 0 -72.5 4t-74.5 13q-90 18 -166 69t-127 126t-71.5 168t1.5 196q23 106 80.5 186t137 129t177 64.5t199.5 -5.5q102 -23 185.5 -77t136.5 -130.5t72.5 -173t-2.5 -202.5q-16 -80 -59.5 -149.5t-100.5 -123.5l-531 -514l-174 37zM571 584 q74 -16 140.5 -4t120 45.5t91.5 88t52 122.5t2 133t-47 119.5t-91.5 92.5t-127.5 54q-74 14 -140.5 2t-121 -47t-92.5 -90.5t-52 -122.5q-16 -72 -5 -135.5t45 -115.5t91 -89t135 -53z" />
<glyph horiz-adv-x="479" d="M250 1020l160 -33l-211 -995l-160 35zM274 1276q0 47 31 81t80 34q47 0 83 -31t36 -80q0 -47 -31 -81t-78 -34t-84 31t-37 80z" />
<glyph horiz-adv-x="1030" d="M205 156q10 53 53 79.5t94 16.5t80 -52t17 -98q-10 -53 -54.5 -79.5t-93.5 -16.5q-51 10 -79.5 52.5t-16.5 97.5zM268 1446l840 -178l-682 -721l246 -51l-31 -150l-514 111l688 719l-579 122z" />
<glyph horiz-adv-x="1431" d="M1049 713h149v-131q0 -92 -13.5 -177.5t-54.5 -156.5l164 -234v-14h-164l-86 125q-61 -76 -156 -119t-210 -43t-209 36t-161.5 99.5t-104.5 149.5t-37 186q0 88 28.5 162t76.5 132t110.5 100t130.5 67l-313 477h768v-151h-490l551 -836q16 63 18.5 110.5t2.5 102.5v115z M330 434q0 -76 29.5 -135t76.5 -100t108.5 -62.5t127.5 -21.5q90 0 163.5 30.5t120.5 98.5l-362 528q-49 -14 -96 -42t-84 -70t-60.5 -98t-23.5 -128z" />
<glyph horiz-adv-x="2158" d="M1958 420q0 -106 -24.5 -179t-67.5 -118t-100.5 -65.5t-123.5 -20.5q-104 0 -168.5 41t-101.5 106q-57 -57 -141 -95t-176 -38q-76 0 -155 27.5t-142.5 85t-103.5 144.5t-40 206q0 100 37 185t98.5 146.5t140.5 95.5t163 34q70 0 143.5 -24.5t134.5 -76.5v87h168v-613 q0 -45 13.5 -75.5t33 -50t45 -28t49.5 -8.5q76 0 116 53.5t40 176.5v788h-1376v-1374h1044v-147h-1206v1669h1700v-932zM1331 715q-37 41 -104.5 75.5t-143.5 34.5q-72 0 -128 -24.5t-96 -67.5t-61.5 -98t-21.5 -117q0 -72 22.5 -130t63.5 -99t95.5 -63.5t119.5 -22.5 q37 0 73 10t69.5 26.5t62.5 40t49 48.5v387z" />
<glyph horiz-adv-x="700" d="M217 1409l428 -92l-285 -1342l-157 33l254 1198l-271 58z" />
<glyph horiz-adv-x="1400" d="M293 668q0 -133 50 -237.5t136 -175.5t199 -107.5t240 -36.5q63 0 118 14l86 397l-579 123l30 150l730 -156l-132 -623q-66 -29 -136 -42t-142 -13q-156 0 -295 50t-243.5 143.5t-166 224.5t-61.5 293q0 152 53 287t147.5 236t224.5 160.5t286 59.5q68 0 140.5 -13 t142 -39t132 -62.5t111.5 -86.5l-33 -159l-10 2q-41 49 -96.5 86t-120 63.5t-131 40t-127.5 13.5q-123 0 -224.5 -48.5t-175 -129.5t-113.5 -188t-40 -226z" />
<glyph horiz-adv-x="839" d="M-49 96l33 148l407 -86l254 1194l162 -35l-287 -1342z" />
<glyph horiz-adv-x="1245" d="M403 795l-149 -701l-160 35l285 1341l160 -32l-93 -434l105 -170l604 473l182 -39l-2 -11l-698 -546l450 -783l-2 -10l-194 41z" />
<glyph horiz-adv-x="1654" d="M866 -39q-141 0 -274 52.5t-236.5 145.5t-166 225t-62.5 292q0 152 54.5 286t151.5 233t228 156.5t285 57.5q150 0 283 -55.5t232 -151.5t156.5 -227t57.5 -283q0 -125 -39 -240.5t-110.5 -211t-173 -164t-224.5 -96.5l225 -416l-2 -10l-190 38zM291 682 q0 -117 43 -220.5t117.5 -180t176 -121.5t220.5 -45t221 46t178 125t120 183t44 221t-44 220.5t-120 179t-178 119.5t-219 44t-219.5 -45t-178 -123.5t-118.5 -182t-43 -220.5z" />
<glyph horiz-adv-x="1257" d="M629 680q29 -6 56.5 -11t55.5 -5q63 0 120 20.5t98.5 57t66.5 90t25 118.5q0 51 -19.5 93t-51.5 73t-75 50.5t-90 29.5l-313 66l-58 -269zM1049 -90l-2 -8l-187 39l-461 850l-151 -721l-160 34l285 1342l501 -107q150 -33 245 -131t95 -258q0 -98 -35.5 -178t-97 -135 t-144.5 -86t-177 -31h-23.5t-21.5 2z" />
<glyph horiz-adv-x="1148" d="M131 276l10 -2q68 -70 167.5 -106.5t195.5 -36.5q129 0 224 68.5t128 195.5q-41 -18 -86 -26.5t-92 -8.5q-104 0 -197.5 36t-163 100.5t-109.5 154.5t-40 199q0 111 39 209t109.5 172t166 117t209.5 43q43 0 100.5 -11.5t114 -31t105.5 -48t78 -63.5l-31 -150l-10 3 q-31 33 -73 60.5t-89 47t-96.5 29.5t-92.5 10q-121 0 -219 -63.5t-133 -182.5q80 23 156 23q109 0 205 -37t166.5 -102.5t111.5 -158.5t41 -204q0 -113 -39 -210t-108.5 -170t-165 -114t-207.5 -41q-49 0 -105.5 10.5t-110.5 29t-104.5 45t-87.5 61.5zM319 848 q0 -84 32 -147.5t85 -106.5t123 -65.5t148 -22.5q43 0 83.5 6t79.5 23q-20 168 -132.5 252.5t-276.5 84.5q-35 0 -71 -5t-71 -19z" />
<glyph horiz-adv-x="1345" d="M379 1470l160 -34l-254 -1194l604 -129l254 1194l162 -33l-287 -1344l-926 197z" />
<glyph horiz-adv-x="1095" d="M825 541l54 247q-23 27 -54.5 47.5t-68.5 34t-76 20.5t-72 7q-117 0 -209 -64.5t-129 -175.5zM244 518q-2 -10 -2 -21.5v-21.5q0 -94 40 -162.5t103.5 -112.5t144 -65.5t162.5 -21.5q47 0 94.5 8t92.5 29l10 -3l-33 -151q-41 -16 -90 -22.5t-96 -6.5q-117 0 -224.5 35 t-188.5 102.5t-130 165t-49 224.5q0 113 39 214t107.5 177t165.5 120t214 44q55 0 119.5 -15.5t125 -43t113 -67.5t82.5 -89l-98 -465z" />
<glyph horiz-adv-x="727" d="M791 1290l-31 -141l-238 51l-45 -209l279 -59l-29 -139l-278 59l-183 -854l-157 33l180 854l-187 39l31 141l186 -41l74 350z" />
<glyph horiz-adv-x="548" d="M-195 -233l31 143l238 -51l252 1179l157 -32l-282 -1323zM350 1278q0 47 33 80t80 33t82 -31t35 -78q0 -49 -31 -82t-80 -33q-47 0 -83 31t-36 80z" />
<glyph horiz-adv-x="1259" d="M63 -92l699 -148l69 326q-49 -29 -104 -40t-111 -11q-104 0 -200.5 37t-170 102.5t-117.5 156.5t-44 199q0 113 38 207t105.5 163t161.5 106.5t207 37.5q55 0 113.5 -12t114 -36.5t102.5 -60.5t80 -83l18 86l147 -33l-280 -1323l-858 182zM963 698q-25 47 -66 83 t-90 60.5t-103.5 38t-105.5 13.5q-78 0 -142.5 -27.5t-111.5 -76t-72.5 -114t-25.5 -143.5q0 -80 32.5 -144t86 -110.5t124 -71t144.5 -24.5q59 0 121.5 17.5t111.5 52.5z" />
<glyph d="M215 74l-158 32l285 1344l158 -35l-74 -348l643 -135l-211 -993l-158 32l181 850l-486 103z" />
<glyph horiz-adv-x="1712" d="M813 -16l-160 34l181 848l-433 92l-178 -849l-160 34l211 994l1342 -285l-211 -993l-158 32l180 850l-434 93z" />
<glyph d="M217 80l-160 35l213 993l801 -170l-211 -993l-158 32l181 850l-486 103z" />
<glyph horiz-adv-x="722" d="M199 -2l-158 33l211 993l500 -104l-31 -146l-340 74z" />
<glyph horiz-adv-x="753" d="M762 948l-31 -139l-256 53l-151 -708l249 -54l-30 -143l-408 86l182 854l-221 45l31 141l219 -47l55 260l158 -32l-55 -260z" />
<glyph horiz-adv-x="1722" d="M571 956q-88 18 -173 9t-138 -37l-10 2l33 153q47 18 136 29.5t191 -10.5q125 -27 202 -90.5t99 -161.5q86 72 194.5 97.5t223.5 2.5q63 -14 117.5 -39.5t96.5 -55.5t70.5 -59.5t43.5 -50.5l-98 -464l-705 149q-10 -80 13.5 -146.5t66.5 -115.5t101.5 -81t119.5 -44 q63 -14 115.5 -16t93.5 3t72.5 14t54.5 19l10 -2l-33 -153q-45 -18 -137 -27.5t-215 17.5q-121 27 -212 94t-140 170q-39 -31 -85 -55.5t-99.5 -39t-116 -16.5t-131.5 15q-68 14 -128.5 47.5t-103.5 85t-61.5 118t-1.5 146.5q18 82 66.5 137t116 85t146 35t156.5 -11 q33 -6 67 -18.5t64.5 -26t56 -28.5t40.5 -28l20 92q20 98 -28 163.5t-171 92.5zM512 563q-55 12 -108.5 11t-96.5 -17t-72.5 -48t-39.5 -81q-16 -80 39 -141.5t147 -81.5q49 -10 93 -8t82 11t67.5 24.5t52.5 29.5l45 205q-29 25 -82 52.5t-127 43.5zM1438 453l53 249 q-20 25 -67.5 54.5t-118.5 46.5q-72 14 -137.5 5t-122 -40t-98.5 -81t-64 -116z" />
<glyph horiz-adv-x="1095" d="M596 1143l221 207l219 -47l-293 -191zM825 541l54 247q-23 27 -54.5 47.5t-68.5 34t-76 20.5t-72 7q-117 0 -209 -64.5t-129 -175.5zM244 518q-2 -10 -2 -21.5v-21.5q0 -94 40 -162.5t103.5 -112.5t144 -65.5t162.5 -21.5q47 0 94.5 8t92.5 29l10 -3l-33 -151 q-41 -16 -90 -22.5t-96 -6.5q-117 0 -224.5 35t-188.5 102.5t-130 165t-49 224.5q0 113 39 214t107.5 177t165.5 120t214 44q55 0 119.5 -15.5t125 -43t113 -67.5t82.5 -89l-98 -465z" />
<glyph horiz-adv-x="1085" d="M426 1180l242 200l196 -41l137 -282l-135 28l-116 191l-183 -127zM825 541l54 247q-23 27 -54.5 47.5t-68.5 34t-76 20.5t-72 7q-117 0 -209 -64.5t-129 -175.5zM244 518q-2 -10 -2 -21.5v-21.5q0 -94 40 -162.5t103.5 -112.5t144 -65.5t162.5 -21.5q47 0 94.5 8t92.5 29 l10 -3l-33 -151q-41 -16 -90 -22.5t-96 -6.5q-117 0 -224.5 35t-188.5 102.5t-130 165t-49 224.5q0 113 39 214t107.5 177t165.5 120t214 44q55 0 119.5 -15.5t125 -43t113 -67.5t82.5 -89l-98 -465z" />
<glyph horiz-adv-x="1095" d="M434 1313q0 45 30 77.5t77 32.5q45 0 76.5 -28.5t31.5 -75.5q0 -45 -28.5 -77t-75.5 -32q-43 0 -77 28t-34 75zM848 1229q0 43 30.5 75.5t75.5 32.5t77 -31.5t32 -76.5t-29.5 -76t-77.5 -31q-45 0 -76.5 30t-31.5 77zM825 541l54 247q-23 27 -54.5 47.5t-68.5 34 t-76 20.5t-72 7q-117 0 -209 -64.5t-129 -175.5zM244 518q-2 -10 -2 -21.5v-21.5q0 -94 40 -162.5t103.5 -112.5t144 -65.5t162.5 -21.5q47 0 94.5 8t92.5 29l10 -3l-33 -151q-41 -16 -90 -22.5t-96 -6.5q-117 0 -224.5 35t-188.5 102.5t-130 165t-49 224.5q0 113 39 214 t107.5 177t165.5 120t214 44q55 0 119.5 -15.5t125 -43t113 -67.5t82.5 -89l-98 -465z" />
<glyph horiz-adv-x="1081" d="M821 522l53 250q-20 25 -67 54.5t-119 45.5q-72 14 -138.5 5t-121.5 -39.5t-98 -80.5t-64 -116zM238 500q-10 -80 13 -145.5t66 -115t101.5 -82t120.5 -44.5q63 -14 114.5 -16.5t93 2.5t72.5 14.5t55 19.5l11 -2l-33 -151q-45 -20 -137 -29.5t-215 16.5 q-106 23 -193.5 79t-146 139t-80 189.5t5.5 229.5t90.5 211t149.5 140.5t186 68.5t201 -4q63 -14 117.5 -40t96.5 -55.5t70.5 -59t42.5 -50.5l-98 -465zM682 1108l-193 293l222 -47l118 -279z" />
<glyph horiz-adv-x="1998" d="M1147 518q-2 -10 -2 -21.5v-21.5q0 -94 40 -162.5t103.5 -112.5t144 -65.5t162.5 -21.5q47 0 94.5 8t92.5 29l10 -3l-33 -151q-41 -16 -90 -22.5t-96 -6.5q-80 0 -156 16.5t-143.5 48t-122.5 78t-94 107.5q-68 -111 -180.5 -178.5t-255.5 -67.5q-113 0 -212.5 39 t-173 108.5t-116.5 165t-43 210.5q0 113 39 212t108.5 174.5t166.5 119.5t212 44q147 0 267 -66.5t192 -180.5q68 113 183.5 182.5t262.5 69.5q55 0 120 -15.5t125 -43t112.5 -67.5t83.5 -89l-99 -465zM608 893q-82 0 -149.5 -32t-116.5 -86t-75.5 -125.5t-26.5 -149.5 t28.5 -146.5t77.5 -120t116.5 -81t145.5 -29.5q82 0 150.5 32.5t118 88t77 128t27.5 152.5t-28.5 147.5t-79 117t-118 77t-147.5 27.5zM1729 541l53 247q-23 27 -54.5 47.5t-68.5 34t-76 20.5t-72 7q-117 0 -209 -64.5t-128 -175.5z" />
<glyph horiz-adv-x="1347" d="M743 1509l224 207l219 -47l-293 -190zM381 1470l160 -34l-254 -1194l604 -129l254 1194l162 -33l-287 -1344l-926 197z" />
<glyph horiz-adv-x="1347" d="M575 1544l240 203l199 -41l137 -283l-137 29l-117 190l-180 -126zM381 1470l160 -34l-254 -1194l604 -129l254 1194l162 -33l-287 -1344l-926 197z" />
<glyph horiz-adv-x="1347" d="M840 1489l-191 295l221 -47l119 -279zM381 1470l160 -34l-254 -1194l604 -129l254 1194l162 -33l-287 -1344l-926 197z" />
<glyph horiz-adv-x="1347" d="M584 1679q0 45 30.5 77t75.5 32t77 -29.5t32 -75.5q0 -47 -30 -78.5t-77 -31.5q-45 0 -76.5 29.5t-31.5 76.5zM997 1591q0 45 29 77t76 32t78.5 -31t31.5 -78q0 -43 -30.5 -74.5t-73.5 -31.5q-45 0 -78 29.5t-33 76.5zM381 1470l160 -34l-254 -1194l604 -129l254 1194 l162 -33l-287 -1344l-926 197z" />
<glyph horiz-adv-x="1218" d="M791 1290l-31 -141l-238 51l-45 -209l279 -59l-29 -139l-278 59l-183 -854l-157 33l180 854l-187 39l31 141l186 -41l74 350zM989 1020l160 -33l-211 -995l-160 35zM1014 1276q0 47 30.5 81t79.5 34q47 0 83 -31t36 -80q0 -47 -30.5 -81t-77.5 -34t-84 31t-37 80z" />
<glyph horiz-adv-x="1222" d="M791 1290l-31 -141l-238 51l-45 -209l279 -59l-29 -139l-278 59l-183 -854l-157 33l180 854l-187 39l31 141l186 -41l74 350zM780 35l287 1341l158 -35l-287 -1341z" />
<glyph horiz-adv-x="1187" d="M254 190q47 -31 114.5 -53t159.5 -22q88 0 161 24.5t125 68.5t82 107.5t34 141.5q-53 -37 -129 -59.5t-166 -22.5q-94 0 -182 34.5t-156 99t-107.5 158t-39.5 210.5q0 100 30.5 186t84.5 153.5t128 112.5t162 66v182h154v-168q45 -2 88 -10t79.5 -20.5t64.5 -25t42 -24.5 v-153h-10q-35 27 -110 54t-177 27q-68 0 -133.5 -21.5t-118.5 -63.5t-88 -102t-39 -136q59 35 131 51t150 16q100 0 190 -38.5t158 -106.5t107.5 -161t39.5 -203q0 -102 -30.5 -188.5t-85 -153t-128 -110.5t-159.5 -63v-190h-154v176q-84 4 -156.5 21.5t-125.5 48.5v157h10z M659 524q82 0 145.5 21.5t108.5 50.5q-37 113 -125 185.5t-229 72.5q-150 0 -250 -66q29 -129 121 -196.5t229 -67.5z" />
<glyph horiz-adv-x="1148" d="M469 1274l-252 -1192l-160 33l285 1343l852 -182l-420 -475l400 -86l-617 -705l-172 35l504 576l-397 86l417 473z" />
<glyph horiz-adv-x="1880" d="M1647 0h-1371v1372h1371v-1372zM1315 268h-148l-221 334h-137v-334h-133v832h311q70 0 123 -19.5t90 -53.5t55.5 -79t18.5 -94q0 -57 -17.5 -99t-44 -71t-60.5 -46t-67 -26l230 -333v-11zM809 719h158q92 0 132 31.5t40 103.5q0 59 -40 92t-132 33h-158v-260zM410 1249 v-1126h1103v1126h-1103z" />
<glyph horiz-adv-x="1880" d="M1251 920q-55 37 -111.5 53t-115.5 16q-66 0 -122 -22.5t-97 -62.5t-64.5 -96t-23.5 -124t23.5 -123t64.5 -95t98.5 -62.5t122.5 -22.5q63 0 125.5 21.5t112.5 54.5h10v-135q-47 -29 -118 -48.5t-132 -19.5q-92 0 -174 31.5t-142.5 88t-95 135.5t-34.5 175q0 94 33.5 174 t94 137.5t141.5 89t173 31.5q72 0 132 -19.5t108 -47.5v-129h-9zM1647 0h-1371v1372h1371v-1372zM410 1249v-1126h1103v1126h-1103z" />
<glyph horiz-adv-x="1011" d="M545 920q0 -55 -36 -90t-89 -35q-51 0 -88 34.5t-37 90.5q0 55 37 89.5t88 34.5q53 0 89 -34.5t36 -89.5zM760 -338h-858l506 827h-252v152h526l-514 -827h592v-152z" />
<glyph horiz-adv-x="565" d="M203 1372h276v-764h-119v660h-157v104z" />
<glyph horiz-adv-x="1515" d="M1198 676l150 -33l-107 -498l98 -20l-22 -105l-98 21l-31 -143l-115 24l31 144l-336 71l20 92zM918 215l206 -45l86 373zM147 129l1080 1163l127 -28l-2 -9l-1082 -1163l-125 27zM264 1497l271 -59l-160 -746l-115 25l135 645l-153 33z" />
<glyph horiz-adv-x="1574" d="M1356 -25l-23 -104l-475 100l19 82l307 234q23 18 48 35.5t45.5 39t34 47t13.5 58.5t-15.5 58.5t-40 42t-55 25.5t-59.5 9q-43 0 -88 -15.5t-78 -43.5l-6 2l27 125q33 23 71.5 32t77.5 9q53 0 104.5 -16.5t92.5 -47.5t66.5 -76t25.5 -102q0 -86 -47 -141.5t-111 -102.5 q-61 -47 -121.5 -93t-124.5 -91zM264 1501l271 -57l-158 -748l-117 25l137 645l-155 33zM150 133l1081 1163l125 -26l-2 -10l-1080 -1164l-127 27z" />
<glyph horiz-adv-x="1980" d="M1548 170q-94 0 -147 41t-90 106q-55 -57 -138 -95t-180 -38q-76 0 -154.5 28t-142 85t-103.5 144t-40 206q0 100 37 185.5t98.5 146.5t140 95t162.5 34q70 0 143.5 -24.5t135.5 -75.5v86h168v-613q0 -90 31.5 -126t78.5 -36q49 0 87 30t63.5 82t39 124t13.5 156 q0 135 -52 258t-145.5 215t-222.5 146t-284 54q-164 0 -300.5 -56t-234.5 -156.5t-152.5 -237.5t-54.5 -299q0 -158 55.5 -291t151.5 -229.5t227 -149.5t283 -53q119 0 218 28.5t161 67.5h4v-166q-59 -29 -155.5 -55.5t-229.5 -26.5q-195 0 -357.5 67t-280.5 184.5 t-183.5 276t-65.5 343.5q0 184 63.5 349t181.5 289t288 195.5t385 71.5q203 0 362.5 -73.5t270 -190.5t170 -263.5t59.5 -293.5q0 -127 -26.5 -227.5t-75 -171t-116 -108.5t-147.5 -38zM1270 848q-37 41 -104.5 75.5t-143.5 34.5q-72 0 -128 -24.5t-96 -67.5t-61.5 -98 t-21.5 -117q0 -72 23.5 -130t63.5 -99t95 -63.5t121 -22.5q72 0 142.5 36t109.5 89v387z" />
<glyph horiz-adv-x="1167" d="M369 1079l34 166l340 123l129 -29l-256 -1196l273 -59l-31 -143l-700 149l30 143l271 -57l215 1008l-295 -107z" />
<glyph horiz-adv-x="780" d="M100 655v170l308 191h131v-1016h-162v821l-266 -166h-11z" />
</font>
</defs>
</svg>
